<?xml version="1.0" standalone="no"?>
<!DOCTYPE svg PUBLIC "-//W3C//DTD SVG 20010904//EN"
 "http://www.w3.org/TR/2001/REC-SVG-20010904/DTD/svg10.dtd">
<svg version="1.0" xmlns="http://www.w3.org/2000/svg"
 width="3464.000000pt" height="3464.000000pt" viewBox="0 0 3464.000000 3464.000000"
 preserveAspectRatio="xMidYMid meet">
<metadata>
Created by potrace 1.14, written by Peter Selinger 2001-2017
</metadata>
<g transform="translate(0.000000,3464.000000) scale(0.100000,-0.100000)"
fill="#000000" stroke="none">
<path d="M27430 31334 c-52 -7 -151 -18 -220 -25 -73 -6 -145 -19 -173 -30
-28 -11 -72 -19 -106 -19 -41 0 -75 -7 -110 -24 -44 -20 -57 -22 -105 -14 -46
8 -60 7 -101 -12 -27 -12 -89 -28 -139 -36 -167 -25 -323 -62 -410 -98 -48
-20 -119 -41 -159 -46 -40 -6 -101 -19 -137 -31 -192 -59 -261 -78 -315 -87
-33 -5 -100 -24 -150 -41 -49 -17 -151 -49 -225 -70 -153 -45 -459 -150 -880
-302 -30 -11 -65 -27 -76 -34 -12 -8 -53 -24 -90 -36 -82 -25 -287 -115 -326
-141 -15 -11 -72 -34 -125 -52 -54 -18 -123 -43 -153 -56 -30 -12 -73 -27 -95
-33 -22 -6 -101 -41 -175 -78 -74 -37 -159 -75 -189 -84 -30 -10 -82 -35 -114
-56 -33 -22 -65 -39 -71 -39 -41 0 -170 -63 -227 -110 -35 -29 -93 -67 -129
-82 -36 -16 -108 -49 -161 -74 -52 -24 -104 -44 -115 -45 -25 0 -94 -34 -164
-80 -143 -93 -190 -118 -250 -133 -62 -16 -158 -71 -315 -181 -67 -47 -160
-96 -219 -115 -80 -26 -267 -140 -350 -213 -67 -61 -192 -147 -212 -147 -3 0
-50 -32 -105 -72 -104 -74 -142 -118 -184 -211 -38 -86 -39 -102 -8 -132 67
-62 161 -59 298 9 49 25 113 52 140 61 28 10 88 40 134 68 106 64 158 83 247
91 101 9 143 26 247 104 110 83 119 88 177 95 86 12 151 37 193 77 23 21 71
51 107 68 36 16 77 43 93 60 15 17 44 36 65 42 45 14 166 70 279 128 46 23
113 54 150 67 37 14 90 43 118 65 34 26 69 43 101 49 66 13 81 19 134 57 25
18 71 42 102 54 32 12 60 26 63 31 10 16 77 46 131 58 36 9 62 23 85 47 18 19
58 43 88 55 31 11 60 24 66 29 5 4 55 22 110 40 147 47 154 50 202 92 57 49
74 58 147 75 34 7 79 22 101 32 22 10 65 24 95 31 30 6 82 25 115 40 33 16 87
38 120 49 104 34 249 88 280 105 17 9 37 16 45 16 8 0 46 18 83 40 44 25 100
47 155 60 48 11 108 32 135 46 26 13 73 27 105 30 65 7 182 38 227 62 17 8 53
21 80 28 28 7 95 24 150 38 55 13 125 36 156 51 65 29 204 67 329 89 47 8 111
24 142 35 31 12 113 27 182 35 116 14 186 35 186 57 0 16 90 38 172 43 125 9
277 40 334 70 46 24 60 26 211 28 138 3 164 1 178 -13 15 -15 11 -21 -57 -76
-40 -33 -96 -72 -125 -87 -29 -14 -75 -46 -103 -71 -27 -24 -58 -49 -68 -54
-10 -5 -30 -26 -43 -46 -13 -20 -49 -51 -80 -70 -31 -20 -72 -55 -90 -79 -19
-24 -45 -51 -59 -60 -15 -8 -42 -31 -60 -51 -55 -59 -79 -78 -124 -105 -81
-47 -162 -123 -200 -188 -24 -41 -51 -71 -79 -89 -51 -31 -319 -302 -354 -356
-33 -52 -147 -162 -208 -201 -49 -32 -132 -119 -273 -288 -49 -58 -91 -97
-127 -117 -29 -17 -62 -42 -72 -56 -10 -14 -39 -49 -65 -78 -26 -29 -51 -61
-54 -72 -13 -39 -54 -82 -104 -109 -31 -17 -65 -47 -89 -80 -22 -29 -53 -65
-71 -79 -49 -42 -136 -160 -173 -235 -31 -63 -36 -69 -99 -99 -37 -18 -72 -42
-79 -55 -6 -13 -28 -43 -48 -68 -21 -25 -51 -67 -69 -95 -17 -27 -47 -63 -67
-78 -19 -15 -49 -56 -66 -90 -18 -34 -35 -64 -38 -67 -4 -3 -27 -32 -51 -65
-23 -33 -48 -64 -54 -70 -28 -25 -85 -104 -106 -148 -28 -60 -102 -170 -149
-220 -34 -37 -68 -96 -146 -254 -34 -69 -120 -207 -166 -267 -28 -35 -77 -66
-105 -66 -12 0 -44 16 -70 35 -27 19 -69 44 -92 56 -24 11 -63 38 -86 59 -23
22 -94 73 -157 114 -63 41 -132 89 -155 105 -22 17 -57 38 -78 46 -21 9 -86
46 -145 82 -142 88 -159 98 -206 113 -22 6 -112 51 -200 98 -164 88 -230 122
-370 189 -44 21 -126 68 -181 105 -56 37 -157 94 -225 127 -68 34 -144 72
-168 85 -25 13 -68 27 -97 31 -42 5 -62 14 -97 45 -31 27 -62 43 -107 55 -35
9 -84 27 -110 40 -25 13 -79 33 -120 45 -41 13 -106 40 -145 60 -38 21 -101
48 -140 60 -38 12 -98 37 -134 56 -35 19 -72 34 -82 34 -9 0 -32 12 -49 27
-31 25 -32 29 -26 79 5 47 4 54 -15 65 -30 16 -72 5 -164 -42 -61 -30 -100
-43 -160 -51 -124 -15 -495 5 -620 34 -68 15 -157 15 -231 -1 -53 -11 -308
-11 -529 1 -16 1 -48 1 -70 0 -90 -5 -262 7 -345 24 -85 17 -96 17 -232 1 -79
-9 -228 -19 -333 -22 -132 -4 -218 -12 -282 -26 -51 -11 -114 -19 -140 -18
-48 3 -188 -14 -273 -32 -25 -6 -92 -21 -150 -35 -155 -36 -402 -49 -538 -28
-78 12 -122 14 -190 7 -48 -5 -127 -6 -177 -2 -245 19 -1008 5 -1054 -20 -16
-9 -42 -11 -82 -7 -46 6 -84 1 -187 -24 -78 -18 -157 -30 -198 -30 -99 0 -252
-25 -336 -55 -40 -14 -116 -40 -168 -57 -59 -19 -114 -44 -145 -68 -70 -52
-88 -60 -132 -60 -21 0 -53 -4 -72 -10 -18 -5 -59 -12 -89 -15 -64 -6 -88 -23
-122 -91 -18 -37 -21 -56 -17 -95 8 -65 24 -87 115 -151 137 -99 327 -181 453
-196 46 -5 213 36 399 98 80 27 190 56 245 65 54 9 119 23 144 31 25 8 71 14
101 14 30 0 87 10 125 21 79 24 231 37 520 44 171 5 312 15 417 31 54 9 83 -2
109 -37 l22 -31 -28 -71 c-34 -88 -37 -92 -117 -175 -35 -37 -84 -94 -109
-128 -25 -33 -54 -70 -65 -83 -34 -41 -48 -60 -99 -131 -27 -39 -69 -94 -92
-122 -23 -28 -50 -67 -59 -87 -9 -20 -30 -55 -45 -78 -16 -23 -29 -46 -29 -52
0 -6 -4 -11 -8 -11 -14 0 -42 -98 -42 -146 0 -37 5 -46 33 -68 17 -13 58 -32
89 -41 40 -11 73 -30 109 -63 51 -46 54 -47 114 -46 80 1 122 26 177 108 23
33 57 79 77 102 20 22 65 77 101 122 73 91 98 101 114 43 11 -38 -6 -140 -30
-176 -8 -12 -26 -96 -42 -186 -26 -158 -27 -168 -14 -269 8 -58 25 -132 38
-165 39 -99 74 -226 74 -271 0 -56 17 -92 52 -110 42 -22 55 -57 34 -89 -9
-14 -28 -30 -41 -35 -31 -12 -41 -32 -49 -102 -4 -31 -14 -62 -22 -68 -7 -7
-11 -17 -8 -22 4 -6 3 -13 -2 -17 -5 -3 -20 -37 -33 -74 -19 -55 -22 -79 -16
-123 6 -51 4 -57 -22 -87 -21 -23 -36 -60 -52 -123 -12 -49 -32 -120 -44 -159
-21 -69 -24 -116 -17 -275 2 -41 0 -130 -5 -197 -7 -103 -5 -132 10 -184 18
-67 24 -129 29 -309 3 -93 8 -129 30 -189 17 -48 26 -95 26 -133 0 -34 9 -83
20 -116 12 -31 25 -104 30 -162 5 -58 16 -125 25 -149 24 -70 45 -168 45 -216
0 -44 -17 -65 -52 -65 -7 0 -81 66 -165 148 -120 117 -158 160 -182 209 -17
34 -51 85 -75 112 -57 64 -136 185 -153 236 -8 22 -26 62 -40 89 -14 27 -31
75 -39 105 -8 31 -28 78 -44 104 -18 28 -39 86 -50 135 -11 48 -26 112 -34
142 -19 76 -41 184 -66 320 -41 226 -39 218 -83 264 -28 29 -63 51 -102 66
-85 31 -229 67 -302 74 -56 6 -65 4 -84 -15 -21 -21 -22 -27 -15 -148 4 -69 8
-142 10 -161 3 -19 7 -64 10 -100 3 -36 8 -76 11 -90 17 -89 27 -207 23 -296
-3 -102 -4 -104 -44 -161 -29 -41 -46 -79 -57 -131 -12 -53 -31 -94 -68 -153
-39 -60 -55 -96 -61 -138 -5 -31 -21 -76 -37 -103 -24 -38 -35 -67 -46 -118
-1 -3 -4 -26 -9 -52 -4 -26 -21 -85 -37 -130 -76 -207 -110 -399 -159 -883 -6
-60 -18 -146 -27 -190 -10 -51 -16 -129 -16 -215 1 -82 -4 -155 -12 -185 -21
-76 -36 -446 -23 -545 4 -30 3 -82 -2 -115 -6 -33 -13 -116 -16 -185 -3 -69
-12 -155 -20 -192 -8 -37 -14 -77 -14 -89 0 -12 -13 -58 -29 -103 -16 -45 -34
-100 -40 -123 -6 -23 -29 -64 -50 -91 -47 -59 -74 -111 -133 -257 -65 -158
-69 -174 -77 -290 -6 -86 -12 -111 -30 -136 -27 -36 -30 -49 -41 -160 -5 -47
-18 -120 -30 -162 -18 -64 -19 -82 -10 -115 11 -34 9 -45 -14 -100 -16 -37
-26 -80 -26 -109 0 -26 -7 -106 -15 -176 -9 -70 -15 -167 -14 -215 1 -48 -3
-100 -10 -115 -14 -36 -14 -89 0 -121 9 -20 9 -37 -4 -81 -13 -46 -14 -65 -4
-110 9 -47 8 -62 -7 -105 -12 -34 -16 -63 -12 -88 4 -20 8 -151 10 -290 3
-187 1 -252 -8 -249 -6 2 -12 13 -14 25 -2 12 -7 22 -11 22 -4 0 -7 8 -8 19
-2 24 -47 156 -78 230 -13 32 -31 91 -39 131 -9 40 -22 83 -31 96 -33 50 -86
220 -94 300 -6 57 -15 91 -29 112 -23 32 -35 77 -52 197 -7 44 -25 118 -42
165 -16 47 -38 113 -48 147 -10 35 -21 67 -25 73 -7 12 -45 13 -62 2 -23 -15
-114 -148 -125 -184 -6 -20 -28 -58 -50 -84 -21 -25 -46 -63 -55 -83 -9 -20
-41 -71 -70 -114 -76 -112 -130 -230 -143 -311 -6 -38 -19 -92 -30 -120 -10
-28 -30 -82 -44 -119 -14 -37 -26 -79 -26 -92 0 -14 -18 -72 -40 -131 -22 -58
-43 -131 -45 -162 -3 -31 -7 -75 -9 -97 -4 -53 -13 -74 -48 -111 -21 -22 -34
-52 -45 -100 -9 -38 -26 -90 -40 -115 -13 -26 -28 -68 -32 -95 -5 -27 -25 -87
-46 -134 -98 -228 -123 -298 -130 -365 -9 -77 -17 -90 -68 -116 -54 -28 -117
-77 -117 -92 0 -7 -9 -23 -20 -37 -14 -18 -20 -21 -21 -10 -1 8 -3 26 -5 40
-1 14 -10 52 -19 85 -22 79 -28 207 -16 341 10 109 7 164 -23 439 -8 66 -12
138 -9 161 3 25 -3 71 -15 115 -11 41 -25 105 -32 143 -6 38 -17 81 -24 95 -8
14 -22 60 -31 101 -10 41 -25 88 -33 104 -20 40 -71 109 -87 119 -21 11 -60
-31 -80 -88 -10 -27 -40 -102 -68 -165 -36 -83 -57 -150 -77 -250 -15 -74 -35
-166 -43 -205 -9 -38 -15 -77 -15 -85 0 -8 -4 -94 -10 -190 -6 -96 -8 -247 -5
-335 4 -145 7 -165 30 -212 15 -32 22 -57 16 -65 -8 -13 -23 -189 -25 -298 -3
-104 11 -555 18 -594 3 -22 12 -57 20 -79 9 -25 14 -81 14 -151 0 -67 6 -133
15 -166 46 -170 56 -219 70 -326 9 -66 24 -159 34 -209 11 -49 22 -115 26
-145 8 -69 30 -140 63 -205 30 -59 31 -61 37 -145 10 -115 15 -146 35 -182 10
-20 33 -79 50 -132 18 -54 47 -119 68 -148 34 -49 37 -59 38 -133 3 -99 51
-260 124 -413 28 -58 50 -110 50 -117 0 -7 16 -37 35 -65 20 -29 46 -85 59
-125 13 -40 36 -90 50 -111 14 -21 26 -45 26 -52 0 -33 69 -186 125 -277 34
-55 68 -116 75 -135 16 -40 109 -202 139 -242 44 -56 13 -111 -35 -63 -48 49
-198 155 -254 181 -24 12 -132 99 -170 138 -24 26 -53 42 -100 56 -36 11 -78
31 -94 45 -67 58 -100 21 -112 -126 -6 -74 -4 -92 14 -131 11 -26 23 -68 27
-95 3 -26 22 -79 41 -118 20 -38 45 -93 56 -122 14 -38 33 -64 69 -94 27 -23
70 -69 94 -103 24 -34 55 -68 68 -75 57 -30 69 -106 18 -117 -14 -3 -32 -7
-39 -10 -36 -11 -235 56 -367 124 -79 41 -108 59 -221 138 -33 23 -84 52 -114
64 -30 13 -68 33 -85 44 -35 24 -254 216 -275 241 -8 9 -48 42 -90 73 -66 50
-175 155 -316 305 -38 40 -50 47 -83 47 -55 0 -97 -37 -116 -103 -19 -68 -20
-135 -5 -292 7 -71 12 -174 11 -227 -1 -87 2 -104 30 -175 17 -43 40 -108 51
-146 10 -37 35 -102 55 -145 19 -42 46 -108 60 -147 14 -38 34 -82 45 -98 30
-41 21 -71 -22 -75 -50 -4 -92 26 -129 91 -20 35 -50 69 -82 91 -27 20 -68 64
-92 98 -23 33 -66 86 -95 117 -30 31 -63 74 -74 96 -23 44 -92 146 -145 212
-18 23 -52 75 -75 115 -22 40 -62 100 -87 133 -33 42 -57 90 -83 165 -40 115
-125 324 -156 387 -12 22 -32 82 -47 134 -14 52 -44 130 -65 174 -21 44 -43
99 -49 121 -6 23 -24 73 -40 111 -15 38 -31 90 -35 117 -4 26 -16 67 -25 89
-10 23 -22 74 -26 112 -4 39 -18 108 -32 155 -53 181 -85 308 -98 390 -8 47
-20 117 -28 155 -9 39 -18 125 -21 193 -5 90 -13 144 -31 200 -14 42 -25 97
-25 121 0 24 -4 71 -10 105 -5 33 -14 133 -20 221 -10 133 -18 179 -47 274
-24 82 -37 149 -44 229 -5 63 -11 117 -13 120 -2 4 -7 34 -10 67 -4 33 -11 95
-17 138 -5 43 -8 86 -5 95 9 30 15 130 21 372 6 238 10 289 45 505 10 66 21
176 24 245 3 69 10 150 15 180 6 30 8 129 6 220 -3 91 -5 195 -4 231 0 38 -6
82 -15 102 -16 40 -12 69 17 111 29 41 37 165 12 190 -27 27 -102 12 -138 -28
-36 -39 -62 -90 -71 -138 -4 -21 -21 -53 -42 -75 -19 -21 -41 -53 -50 -72 -8
-19 -30 -58 -48 -85 -18 -28 -43 -82 -56 -120 -13 -39 -40 -102 -61 -141 -24
-44 -45 -101 -55 -151 -8 -43 -25 -104 -36 -134 -43 -119 -49 -151 -58 -310
-5 -91 -14 -185 -21 -210 -7 -28 -9 -88 -5 -160 4 -89 2 -135 -12 -205 -15
-75 -17 -108 -9 -200 5 -70 5 -141 -1 -195 -12 -95 0 -370 17 -435 7 -23 11
-137 11 -275 0 -181 4 -246 15 -284 9 -28 18 -111 21 -190 5 -109 13 -167 35
-256 17 -65 34 -165 39 -230 5 -63 18 -155 29 -205 11 -49 24 -142 30 -205 10
-113 87 -486 110 -528 6 -11 16 -56 22 -99 11 -82 45 -201 84 -293 13 -30 29
-75 35 -100 7 -25 27 -82 46 -128 19 -45 34 -92 34 -105 0 -37 44 -119 87
-162 21 -22 54 -61 71 -86 18 -25 52 -61 75 -81 24 -20 60 -68 86 -114 24 -43
56 -99 70 -124 15 -25 35 -65 45 -90 10 -24 33 -61 51 -81 22 -25 41 -62 55
-110 12 -40 29 -84 38 -98 25 -39 93 -132 123 -168 15 -18 41 -60 58 -95 19
-40 55 -89 99 -133 37 -38 78 -86 90 -106 12 -20 50 -63 85 -95 35 -32 80 -81
101 -109 21 -28 71 -73 112 -101 50 -33 87 -68 112 -105 21 -30 60 -68 87 -86
28 -18 73 -50 100 -71 28 -22 77 -57 110 -77 33 -21 72 -49 88 -61 15 -13 54
-37 86 -54 86 -46 157 -116 171 -168 10 -40 8 -51 -24 -142 -20 -55 -46 -121
-60 -147 -13 -27 -29 -81 -35 -122 -11 -69 -31 -157 -67 -295 -11 -39 -14 -77
-9 -115 6 -50 2 -66 -29 -144 -24 -60 -38 -115 -45 -179 -14 -124 -51 -235
-90 -270 -18 -16 -72 -40 -140 -62 l-109 -36 -219 0 c-184 -1 -230 2 -293 19
-41 10 -104 22 -140 25 -106 10 -250 50 -335 94 -129 66 -307 149 -348 162
-37 11 -197 112 -227 141 -8 9 -40 28 -70 43 -30 15 -68 38 -85 50 -31 24
-207 131 -260 159 -16 9 -48 32 -70 51 -22 20 -62 52 -90 71 -27 19 -77 55
-110 79 -33 25 -80 60 -105 77 -25 18 -79 64 -121 103 -77 73 -138 125 -225
194 -57 45 -129 118 -155 159 -10 15 -45 53 -76 83 -93 88 -146 150 -178 206
-16 29 -44 68 -61 87 -31 33 -104 133 -104 141 0 9 -100 159 -173 259 -43 58
-58 88 -81 162 -9 28 -33 80 -54 115 -61 104 -101 198 -119 274 -8 39 -38 125
-65 191 -38 92 -51 139 -57 200 -9 91 -28 141 -74 199 -18 23 -45 59 -60 81
-15 22 -38 55 -51 73 -14 18 -27 51 -31 75 -4 23 -20 69 -37 102 -31 61 -58
170 -78 310 -6 44 -22 118 -35 165 -18 65 -27 133 -36 285 -17 277 -23 1033
-9 1143 7 48 15 267 20 487 8 382 19 582 40 725 9 66 24 257 35 450 3 58 10
130 15 160 5 30 11 93 15 140 4 47 19 155 35 240 16 85 32 205 35 265 4 61 9
117 10 126 2 9 11 74 20 145 9 71 27 179 40 239 13 61 31 184 40 275 9 91 28
210 42 265 45 175 51 216 61 406 8 156 13 194 32 235 17 39 21 67 21 137 -1
57 6 114 18 165 24 95 50 241 61 347 14 129 30 214 61 315 16 52 36 149 43
215 9 74 24 147 40 190 14 39 26 83 26 99 0 16 12 49 26 73 14 24 29 70 35
101 5 32 22 100 39 152 16 51 30 101 30 110 0 10 18 55 40 102 22 47 47 116
55 153 9 37 27 89 40 114 13 26 29 76 35 111 9 45 23 78 45 108 22 28 38 66
48 110 9 37 36 109 61 160 24 51 50 117 56 147 6 30 22 70 36 90 59 88 46 155
-49 240 -98 89 -151 132 -184 149 -61 31 -147 16 -219 -39 -51 -39 -74 -24
-123 78 -23 46 -48 114 -57 153 -33 143 -87 299 -130 371 -29 50 -52 55 -94
21 -16 -13 -47 -36 -69 -51 -33 -23 -44 -38 -57 -85 -13 -43 -28 -67 -65 -103
-42 -41 -49 -52 -48 -86 0 -21 4 -47 8 -57 5 -12 2 -31 -7 -48 -18 -36 -14
-73 27 -263 20 -91 50 -195 78 -265 25 -63 52 -144 60 -180 7 -35 33 -116 57
-180 88 -230 95 -298 42 -404 -19 -37 -42 -98 -51 -134 -9 -37 -27 -98 -40
-137 -45 -135 -75 -256 -75 -303 0 -58 -13 -107 -53 -197 -17 -38 -36 -97 -43
-130 -6 -33 -23 -107 -37 -165 -15 -58 -34 -148 -43 -200 -9 -52 -30 -147 -45
-210 -21 -82 -29 -139 -29 -201 0 -67 -6 -104 -26 -165 -20 -60 -29 -110 -34
-209 -5 -71 -15 -152 -24 -180 -13 -40 -14 -59 -6 -102 10 -45 8 -61 -10 -120
-28 -89 -45 -258 -42 -408 1 -72 -3 -152 -12 -200 -20 -107 -31 -514 -16 -593
9 -54 8 -70 -16 -158 -21 -81 -27 -134 -34 -294 -4 -107 -13 -213 -19 -235 -6
-22 -11 -54 -11 -71 0 -18 -12 -69 -26 -115 -33 -109 -50 -295 -46 -515 2
-152 0 -186 -23 -294 -15 -76 -25 -155 -25 -209 0 -47 -7 -122 -16 -166 -11
-58 -14 -108 -9 -180 3 -65 1 -112 -6 -135 -7 -19 -15 -89 -19 -155 -22 -372
-32 -501 -45 -600 -8 -60 -18 -139 -21 -175 -3 -36 -9 -85 -14 -110 -12 -67
-5 -489 9 -524 19 -48 49 -243 61 -388 15 -190 28 -270 61 -378 16 -54 37
-159 48 -241 18 -146 19 -147 63 -210 25 -35 63 -102 86 -149 22 -47 50 -95
61 -107 32 -34 59 -92 86 -186 14 -47 43 -119 64 -159 25 -46 44 -98 51 -141
10 -55 21 -79 58 -129 25 -33 56 -90 68 -126 28 -80 116 -226 184 -307 28 -33
70 -101 94 -151 24 -51 49 -94 54 -98 5 -3 40 -51 76 -105 62 -94 93 -124 172
-171 18 -10 46 -45 67 -81 20 -35 61 -90 91 -123 31 -32 64 -75 74 -95 13 -25
33 -43 69 -61 51 -26 178 -145 257 -244 98 -121 183 -193 291 -246 52 -26 110
-66 165 -116 47 -42 105 -88 130 -102 25 -14 66 -44 91 -66 25 -23 86 -61 135
-85 49 -24 108 -53 132 -65 23 -11 73 -45 110 -75 73 -58 119 -83 229 -126 39
-15 92 -45 118 -66 25 -21 69 -45 98 -53 62 -19 70 -24 86 -53 14 -28 14 -68
-1 -96 -23 -44 -105 -130 -178 -189 -41 -33 -91 -79 -110 -102 -19 -23 -56
-61 -82 -85 -27 -24 -65 -67 -85 -96 -21 -29 -77 -96 -125 -149 -77 -86 -126
-160 -191 -291 -11 -22 -41 -63 -67 -92 -32 -35 -58 -78 -80 -135 -19 -46 -48
-112 -66 -148 -54 -108 -74 -181 -74 -269 0 -75 -2 -83 -30 -114 -85 -98 -146
-353 -105 -449 14 -34 13 -37 -20 -89 -25 -38 -35 -65 -35 -94 0 -22 -9 -77
-20 -123 -11 -46 -23 -120 -26 -165 -6 -79 -5 -84 26 -142 30 -54 32 -63 24
-115 -4 -30 -8 -84 -8 -120 -1 -81 37 -280 68 -363 13 -34 26 -84 30 -111 10
-67 86 -204 143 -258 25 -24 66 -63 92 -88 25 -25 65 -53 88 -64 34 -15 50
-32 89 -100 106 -181 254 -396 277 -401 72 -17 103 -9 155 39 26 24 66 53 89
65 47 23 70 51 79 97 6 30 -42 191 -86 289 -59 133 -63 151 -51 242 6 43 13
146 15 228 3 136 6 157 31 220 16 38 36 95 46 125 28 88 97 261 110 277 20 23
90 53 124 53 20 0 42 -9 57 -23 24 -23 29 -40 42 -147 10 -76 40 -209 55 -241
10 -20 38 -63 63 -95 25 -33 55 -79 68 -104 12 -25 37 -66 56 -92 18 -26 45
-71 60 -100 15 -29 52 -89 84 -133 82 -114 102 -153 160 -305 49 -128 52 -141
57 -250 3 -63 0 -165 -5 -227 -9 -105 -13 -116 -57 -197 -38 -71 -47 -96 -47
-136 1 -28 3 -54 6 -59 3 -5 -2 -47 -11 -94 -15 -78 -15 -88 0 -119 8 -18 29
-46 46 -62 17 -17 31 -39 31 -50 0 -32 -43 -116 -83 -164 -62 -74 -62 -144 1
-232 29 -41 53 -61 112 -92 66 -35 81 -39 128 -35 50 3 56 7 120 73 64 64 97
92 196 161 51 36 133 118 221 223 39 45 88 103 111 129 23 25 53 66 68 89 15
24 58 73 96 109 41 40 81 89 101 126 18 34 42 76 55 92 12 17 33 53 47 80 36
71 180 241 212 249 31 8 42 3 187 -96 111 -75 197 -154 435 -400 113 -118 148
-138 207 -118 61 20 64 36 12 67 -25 15 -46 31 -46 35 0 17 57 48 108 58 140
27 159 42 128 104 -39 81 -68 156 -86 227 -27 106 -78 222 -130 299 -50 73
-69 145 -70 260 0 101 13 120 83 120 54 0 61 -3 293 -124 51 -26 80 -49 98
-76 27 -41 54 -59 121 -80 22 -7 101 -41 175 -76 74 -35 166 -70 203 -79 37
-9 91 -25 120 -38 44 -18 71 -21 167 -21 130 1 247 17 298 41 27 13 42 31 65
80 36 78 38 128 8 206 -34 87 -72 124 -177 173 -139 65 -182 104 -242 221 -28
54 -67 125 -86 158 -20 33 -41 77 -47 98 -13 49 -3 113 19 123 9 4 60 11 112
15 52 5 111 11 131 15 27 4 48 0 85 -19 29 -14 76 -27 114 -31 195 -19 203
-18 284 3 44 12 95 21 113 21 19 0 44 6 56 14 12 8 52 22 89 30 82 19 182 63
225 100 18 15 45 50 60 77 42 79 102 98 176 59 21 -11 57 -28 80 -37 23 -9 67
-39 97 -66 61 -54 104 -77 148 -77 30 0 52 -13 146 -91 31 -25 80 -53 109 -63
28 -11 77 -34 107 -52 76 -45 98 -52 204 -68 68 -10 108 -23 156 -49 36 -19
103 -47 149 -62 78 -24 93 -26 190 -20 l106 7 55 -37 c54 -37 58 -38 185 -48
164 -12 304 -13 421 -2 l90 8 36 -31 c51 -45 76 -52 201 -52 61 -1 128 -2 147
-2 39 -1 260 9 385 17 77 6 114 6 275 2 41 -1 112 4 157 11 46 7 133 13 195
14 71 0 143 7 193 19 44 9 103 21 130 24 28 4 75 13 107 21 31 8 92 17 135 21
45 3 99 15 128 28 28 12 62 25 77 28 15 4 48 25 73 47 57 50 105 63 175 50 35
-7 65 -7 90 0 21 6 66 12 101 15 51 4 84 15 159 54 52 27 143 65 202 84 59 20
127 47 151 61 23 14 67 30 97 37 30 6 98 34 150 62 165 88 184 97 223 103 22
3 61 0 89 -6 40 -10 54 -20 75 -51 30 -45 56 -63 120 -85 62 -21 79 -37 88
-80 13 -74 123 -155 253 -189 34 -8 111 -34 170 -57 90 -34 124 -42 212 -48
104 -7 117 -10 176 -36 16 -7 50 -16 75 -19 83 -12 87 -14 94 -45 6 -26 -6
-165 -21 -236 -2 -12 -22 -41 -44 -65 -23 -24 -57 -78 -76 -119 -68 -143 -85
-173 -112 -204 -15 -17 -36 -58 -47 -90 -15 -45 -30 -67 -60 -90 -58 -46 -161
-155 -195 -206 -53 -82 -60 -90 -118 -126 -31 -20 -85 -63 -119 -94 -34 -32
-113 -89 -176 -126 -91 -54 -121 -77 -147 -115 -18 -26 -49 -60 -70 -74 -49
-34 -64 -63 -56 -111 5 -25 1 -54 -8 -81 -14 -39 -13 -44 4 -66 11 -14 35 -28
55 -31 19 -4 40 -13 48 -20 33 -34 80 -48 131 -42 28 4 76 9 106 12 103 8 171
25 227 56 44 24 69 31 122 32 135 5 211 22 331 79 63 30 140 62 171 72 31 9
79 34 107 55 27 21 70 47 94 58 24 10 60 32 79 48 18 16 52 43 74 59 41 29
179 166 225 221 24 29 120 94 140 94 5 0 42 34 82 75 95 98 144 115 178 62 11
-17 13 -61 12 -210 -3 -163 -6 -196 -23 -240 -17 -42 -20 -63 -14 -107 4 -30
7 -89 6 -131 -3 -101 14 -141 74 -177 26 -15 69 -42 97 -61 95 -62 123 -71
254 -71 76 -1 136 4 165 13 76 23 206 122 336 255 113 115 125 132 158 211 20
47 54 109 76 137 22 28 53 89 70 135 17 46 59 145 94 219 78 169 105 241 105
286 0 22 13 59 34 97 19 34 44 97 55 139 12 43 32 108 46 145 14 37 32 112 41
167 13 91 43 204 94 356 10 30 26 81 35 112 26 96 82 112 121 35 25 -46 92
-249 112 -337 10 -41 34 -104 53 -140 92 -169 123 -218 154 -250 19 -19 50
-70 70 -114 59 -131 161 -253 269 -323 37 -24 90 -61 116 -82 66 -52 144 -88
219 -100 82 -13 128 -38 168 -90 50 -64 67 -136 59 -245 -4 -50 -9 -135 -12
-190 -6 -118 -36 -256 -68 -311 -13 -22 -34 -73 -45 -113 -20 -67 -64 -155
-96 -192 -32 -38 -117 -225 -127 -281 -17 -100 19 -176 123 -259 44 -35 57
-40 102 -40 29 0 69 -5 90 -11 30 -8 37 -15 37 -35 0 -31 36 -49 84 -40 56 11
269 160 334 236 31 35 89 99 128 142 39 43 85 103 102 135 22 42 44 66 77 87
59 36 166 196 260 387 37 75 90 165 119 201 40 49 65 96 103 194 28 71 54 145
58 164 4 19 25 79 46 133 46 116 69 232 74 364 2 79 6 99 21 110 38 28 92 9
125 -44 13 -21 42 -58 65 -83 66 -72 122 -158 138 -214 9 -28 33 -90 54 -136
22 -47 54 -130 72 -185 31 -97 32 -104 27 -226 -5 -96 -11 -139 -28 -180 -45
-113 -21 -209 75 -305 73 -72 95 -73 245 -18 149 55 157 61 268 197 40 49 89
102 110 119 56 43 118 112 181 197 31 42 78 103 106 136 65 79 159 224 229
358 56 105 109 239 169 427 17 52 44 129 60 170 22 53 33 102 39 170 4 52 14
131 22 175 32 171 38 268 28 396 -6 68 -12 151 -14 184 -4 57 -20 101 -57 155
-30 44 -42 98 -41 194 1 100 -5 139 -38 255 -27 93 -53 142 -100 194 -48 52
-68 92 -92 180 -11 38 -30 83 -43 101 -13 17 -36 55 -52 85 -16 29 -52 79 -80
111 -28 32 -70 96 -92 143 -31 63 -55 97 -95 134 -30 26 -67 68 -82 93 -15 25
-47 68 -70 95 -23 28 -73 97 -111 155 -44 68 -101 137 -160 195 -51 50 -102
109 -114 132 -12 24 -45 64 -72 90 -28 27 -67 71 -88 98 -33 45 -109 129 -276
306 -29 31 -67 86 -85 123 -52 109 -176 205 -426 331 -81 41 -156 84 -165 96
-40 48 -18 100 81 188 101 89 122 120 130 189 l6 57 70 33 c39 19 104 62 145
95 83 68 89 75 127 132 37 56 128 150 189 195 28 21 88 73 133 116 46 43 107
97 136 119 29 23 108 97 177 166 68 68 142 138 165 154 22 17 47 41 55 53 8
13 51 61 95 105 43 45 93 100 109 122 16 22 52 68 80 101 29 34 55 72 59 85
17 58 39 89 84 120 27 18 66 58 87 89 22 32 84 124 140 206 56 82 117 173 137
202 20 30 55 74 77 100 23 25 59 84 81 131 22 47 46 92 54 101 7 8 50 107 95
220 46 113 93 225 105 250 12 25 32 77 45 115 13 39 34 89 47 112 26 44 30 57
69 203 14 52 36 120 49 150 12 30 26 77 30 105 4 27 24 92 45 145 21 52 44
122 50 155 7 33 19 73 27 88 15 30 72 232 92 325 6 29 18 69 27 90 23 54 44
247 34 302 -5 25 -6 88 -3 140 4 81 1 112 -21 210 -15 63 -31 170 -36 238 -5
68 -12 138 -15 155 -3 18 -8 118 -11 222 -7 202 -7 236 -5 343 2 83 -16 503
-24 557 -3 22 -10 66 -16 97 -9 42 -8 69 1 106 10 46 10 55 -10 99 -18 39 -24
76 -31 203 -4 85 -13 179 -19 209 -5 29 -10 74 -10 98 0 27 -11 71 -29 111
-21 48 -32 98 -40 177 -7 63 -23 140 -37 180 -14 39 -29 86 -34 105 -32 130
-51 231 -65 335 -8 66 -22 145 -30 175 -8 30 -17 87 -20 125 -5 64 -18 156
-60 435 -8 52 -20 133 -26 180 -5 47 -19 119 -29 160 -10 41 -26 137 -35 213
-8 76 -24 161 -35 190 -10 29 -31 94 -45 146 -14 51 -39 119 -54 150 -16 31
-34 81 -41 111 -7 30 -23 79 -36 107 -14 29 -29 74 -34 100 -4 27 -15 68 -24
93 -8 25 -20 70 -27 100 -13 60 -60 174 -120 293 -22 43 -44 103 -50 133 -12
63 -41 130 -85 194 -17 25 -34 54 -38 66 -3 11 -26 48 -49 82 -24 33 -54 94
-67 134 -13 40 -45 105 -70 143 -31 47 -49 86 -53 116 -3 25 -27 89 -53 143
-43 88 -48 106 -56 202 -7 90 -15 122 -54 217 -25 61 -60 132 -80 156 -19 25
-39 63 -45 85 -16 64 -29 94 -60 132 -15 19 -35 56 -45 82 -9 26 -26 72 -37
102 -37 95 -14 312 44 423 36 70 89 245 89 297 0 19 12 67 25 105 14 39 25 87
25 107 0 23 11 54 30 86 25 39 33 66 40 137 7 72 16 101 48 164 22 42 45 101
52 131 7 30 21 82 32 115 34 102 58 196 72 291 9 55 25 111 40 140 14 27 30
74 36 104 6 30 22 87 35 125 58 175 75 235 86 305 11 73 31 157 63 270 9 30
16 81 16 112 0 32 9 95 19 141 11 45 19 112 18 147 -1 53 4 75 26 117 40 78
90 340 89 464 -1 91 1 100 29 144 40 63 49 119 49 307 0 99 4 167 11 180 24
44 49 242 49 383 0 144 4 168 40 268 13 36 24 101 29 165 4 59 13 117 19 129
17 30 15 78 -4 115 -12 23 -15 45 -10 82 4 28 11 87 16 131 5 44 20 118 35
165 19 63 25 97 20 131 -4 39 3 125 21 234 2 17 9 77 13 135 5 58 14 130 20
160 10 50 14 226 10 355 -2 58 16 226 37 339 13 70 13 85 -2 143 -12 47 -14
84 -9 136 9 95 13 167 19 312 3 66 10 151 17 190 7 40 9 104 5 150 -3 45 -2
95 3 112 10 34 -2 372 -16 438 -8 40 -10 135 -5 230 5 77 -16 323 -32 388 -8
32 -15 84 -15 115 0 37 -13 97 -37 172 -44 140 -71 194 -118 240 -20 19 -41
51 -47 72 -7 26 -32 61 -80 110 -38 39 -76 83 -84 98 -21 41 -68 76 -127 95
-29 10 -66 25 -83 33 -16 8 -61 19 -100 23 -38 4 -119 19 -180 32 -137 31
-406 41 -555 21z m770 -665 c31 -18 47 -38 80 -108 37 -76 44 -101 56 -206 8
-66 21 -174 29 -240 9 -66 15 -169 15 -230 -1 -60 4 -132 11 -160 6 -27 13
-93 14 -145 2 -52 7 -115 13 -139 8 -34 6 -60 -8 -120 -28 -119 -31 -155 -35
-506 -5 -333 -20 -725 -31 -780 -3 -16 -13 -63 -21 -104 -12 -55 -14 -96 -8
-160 11 -125 9 -190 -9 -240 -14 -37 -15 -72 -10 -207 6 -142 5 -167 -10 -199
-17 -36 -25 -109 -41 -405 -4 -63 -11 -137 -16 -164 -5 -27 -9 -84 -9 -126 0
-52 -7 -101 -22 -146 -17 -56 -22 -98 -23 -219 -2 -108 -7 -161 -18 -190 -9
-22 -21 -69 -27 -105 -6 -36 -17 -85 -25 -110 -7 -25 -16 -95 -19 -155 -3 -61
-10 -124 -16 -140 -12 -33 -27 -156 -40 -335 -4 -64 -15 -135 -24 -160 -29
-75 -34 -100 -50 -235 -9 -71 -19 -152 -22 -180 -6 -46 -14 -75 -49 -165 -18
-44 -19 -106 -3 -166 12 -44 11 -48 -20 -105 -24 -44 -41 -98 -64 -207 -16
-81 -37 -160 -45 -175 -8 -16 -18 -65 -23 -110 -6 -61 -16 -97 -39 -141 -19
-36 -31 -73 -31 -97 0 -22 -11 -60 -25 -87 -13 -26 -29 -72 -35 -102 -6 -30
-24 -95 -41 -144 -16 -48 -33 -118 -36 -155 -4 -46 -16 -85 -39 -131 -35 -69
-64 -163 -84 -270 -6 -36 -29 -118 -51 -182 -23 -68 -39 -137 -39 -163 0 -55
-16 -88 -64 -134 -32 -31 -38 -33 -60 -23 -20 9 -66 83 -66 106 0 2 -16 31
-35 64 -20 33 -46 89 -59 124 -13 36 -36 84 -50 106 -14 23 -37 74 -50 114
-13 40 -38 98 -54 128 -17 30 -38 84 -47 119 -9 34 -31 84 -49 110 -33 49 -36
56 -75 171 -38 116 -137 295 -199 363 -146 158 -202 242 -202 304 0 41 5 50
102 155 56 61 125 125 153 143 74 48 118 102 174 215 28 55 68 126 89 157 87
129 126 227 166 418 14 66 41 166 60 222 35 98 36 105 35 245 -1 78 3 162 9
185 12 53 8 110 -23 294 -35 211 -59 299 -116 424 -28 60 -55 115 -59 120 -4
6 -27 48 -50 95 -56 112 -134 200 -208 237 -53 26 -60 34 -92 99 -19 40 -49
88 -67 108 -56 63 -57 182 -2 270 17 27 37 77 46 110 8 34 30 94 49 134 19 39
43 112 53 161 11 49 31 111 44 138 33 66 40 113 26 181 -11 51 -10 68 5 121
28 101 12 214 -50 346 -41 87 -71 125 -122 156 -20 12 -58 42 -84 66 -26 24
-51 43 -56 43 -5 0 -39 27 -76 60 -73 63 -120 84 -221 95 -81 9 -95 18 -95 59
0 24 10 47 36 78 64 77 196 217 380 402 100 99 194 203 209 229 29 50 37 58
122 110 75 47 148 109 197 169 75 92 266 269 407 375 38 29 80 70 94 92 24 35
42 46 130 81 26 10 141 102 180 143 17 18 65 60 107 95 86 70 141 129 169 184
10 20 29 44 41 52 32 22 94 20 138 -5z m-2459 -2360 c30 -11 74 -30 99 -41 62
-27 281 -241 318 -311 25 -48 27 -61 25 -153 -1 -84 -5 -111 -28 -164 -15 -36
-31 -92 -36 -126 -8 -57 -19 -87 -105 -272 -18 -40 -38 -100 -44 -135 -6 -34
-19 -89 -30 -122 -35 -113 -35 -106 10 -331 14 -66 75 -222 97 -247 10 -10 35
-26 56 -34 38 -15 52 -31 120 -125 174 -243 177 -251 198 -407 13 -99 21 -122
55 -172 13 -20 33 -65 43 -100 10 -36 29 -85 41 -109 21 -41 23 -57 21 -180
-2 -155 -4 -165 -41 -240 -15 -30 -42 -91 -59 -134 -17 -43 -49 -100 -70 -125
-56 -66 -134 -186 -173 -267 -65 -132 -103 -188 -187 -276 -137 -143 -173
-142 -303 10 -46 53 -123 141 -171 196 -48 56 -106 132 -129 169 -40 66 -88
119 -253 277 -43 41 -94 96 -112 121 -18 26 -57 65 -86 87 -53 41 -71 63 -137
159 -37 55 -145 158 -221 211 -25 18 -63 60 -84 93 -32 50 -47 64 -100 89 -72
34 -233 170 -341 288 -88 95 -92 103 -105 197 l-10 77 43 91 c23 51 52 106 63
123 11 17 42 64 69 105 27 41 59 100 72 131 30 76 86 167 135 220 22 24 49 61
60 83 12 22 27 47 34 55 7 8 32 49 56 90 23 41 57 93 76 115 18 21 38 57 44
80 25 90 43 127 78 156 209 179 394 372 455 476 19 33 52 73 73 88 21 16 50
41 65 57 15 16 49 45 75 65 27 20 50 40 52 45 1 5 37 38 79 74 66 57 80 64
117 64 23 0 67 -9 96 -21z m-7571 -826 c20 -5 58 -5 90 0 40 6 74 5 125 -6 39
-8 104 -14 145 -12 41 2 95 -1 120 -7 25 -6 79 -10 121 -9 42 1 88 -3 103 -8
14 -6 95 -17 181 -26 86 -8 187 -22 226 -30 39 -8 85 -15 102 -15 18 0 64 -9
102 -19 67 -18 172 -33 320 -46 39 -3 88 -12 110 -20 22 -8 68 -14 101 -15 34
0 79 -7 100 -16 22 -9 80 -27 129 -41 50 -13 106 -27 125 -33 19 -5 73 -10
120 -11 57 -1 102 -8 135 -21 81 -31 105 -38 192 -53 50 -8 95 -22 113 -35 45
-32 139 -68 251 -95 55 -13 136 -38 179 -55 44 -16 87 -30 96 -30 9 0 44 -14
78 -31 33 -18 99 -44 145 -60 46 -16 109 -43 140 -60 30 -18 87 -42 124 -55
38 -13 90 -36 116 -50 42 -25 227 -124 429 -230 45 -24 105 -59 131 -77 27
-17 88 -57 136 -87 79 -50 134 -90 248 -184 51 -41 98 -67 172 -95 62 -23 178
-94 230 -141 17 -15 59 -44 94 -64 35 -20 99 -69 143 -109 43 -40 91 -78 106
-86 30 -16 110 -77 287 -218 11 -9 49 -42 85 -73 36 -31 90 -75 120 -98 30
-22 69 -59 85 -82 68 -93 91 -119 175 -195 101 -92 319 -318 370 -385 19 -25
49 -56 65 -70 76 -63 192 -196 262 -301 29 -45 73 -103 97 -130 24 -27 54 -70
67 -95 14 -30 42 -62 76 -88 61 -47 180 -214 193 -271 10 -43 3 -71 -18 -80
-10 -4 -83 -22 -163 -40 -116 -27 -170 -45 -265 -91 -65 -31 -138 -71 -161
-88 -23 -17 -68 -46 -100 -64 -32 -18 -74 -47 -93 -63 -33 -29 -232 -165 -341
-234 -27 -16 -99 -76 -161 -132 -62 -55 -138 -121 -168 -146 -30 -24 -84 -76
-120 -114 -36 -39 -90 -88 -120 -110 -72 -53 -168 -152 -201 -209 -63 -109
-110 -134 -249 -134 -55 0 -144 -7 -198 -16 -76 -12 -115 -13 -177 -6 -44 6
-102 10 -130 9 -27 -1 -90 4 -140 11 -49 6 -126 12 -170 12 -44 1 -100 5 -125
11 -25 5 -91 18 -147 28 -56 11 -155 38 -220 60 -120 41 -248 62 -460 76 l-92
6 -111 -58 c-138 -72 -231 -156 -248 -224 -16 -63 -35 -284 -30 -339 3 -28 15
-62 31 -85 21 -30 27 -52 27 -91 0 -44 5 -58 38 -100 42 -54 62 -95 62 -125 0
-13 46 -68 119 -143 88 -91 126 -138 146 -181 14 -32 41 -76 60 -98 19 -21 43
-59 55 -83 11 -24 35 -61 54 -82 18 -20 43 -55 54 -78 11 -22 27 -46 36 -53 8
-7 30 -36 47 -64 18 -29 48 -69 66 -89 17 -20 41 -54 52 -75 10 -21 33 -54 50
-72 19 -21 39 -62 51 -100 11 -37 34 -83 51 -104 17 -21 44 -71 59 -111 15
-41 39 -89 53 -107 24 -33 37 -68 70 -194 9 -33 28 -98 42 -144 22 -73 25
-102 26 -235 0 -84 6 -184 14 -226 10 -56 13 -142 10 -335 -4 -293 -14 -435
-39 -545 -9 -41 -24 -104 -32 -140 -16 -74 -33 -204 -39 -301 -3 -48 -11 -82
-31 -120 -23 -43 -29 -71 -34 -149 -5 -76 -11 -105 -29 -135 -36 -62 -79 -177
-85 -230 -4 -32 -19 -66 -46 -108 -22 -33 -65 -111 -95 -173 -30 -62 -78 -152
-108 -201 -29 -48 -65 -108 -79 -133 -14 -25 -44 -62 -67 -83 -23 -21 -41 -41
-41 -46 0 -4 -14 -22 -31 -39 -29 -30 -33 -31 -49 -17 -28 25 -33 67 -36 275
-1 107 -4 218 -5 245 -1 28 3 68 9 90 14 52 14 364 0 407 -5 18 -12 134 -14
258 -2 172 -8 251 -24 334 -11 61 -20 130 -20 154 0 73 -29 298 -57 442 -28
144 -32 197 -20 273 5 31 2 72 -9 120 -8 40 -24 128 -35 197 -11 69 -21 132
-24 140 -2 8 -7 62 -10 120 -8 156 -21 280 -35 325 -7 22 -16 92 -20 155 -4
63 -13 127 -18 142 -6 15 -18 65 -26 111 -8 47 -28 125 -45 173 -16 49 -35
130 -40 179 -15 125 -50 248 -116 403 -26 63 -48 152 -60 247 -3 28 -17 100
-30 160 -13 61 -26 153 -29 205 -10 175 -24 288 -56 450 -10 52 -21 132 -24
178 -7 100 -57 304 -91 372 -19 38 -25 65 -25 116 0 101 -29 241 -62 300 -19
35 -31 75 -38 130 -15 121 -18 128 -67 179 -25 26 -51 63 -59 81 -21 49 -44
168 -44 222 0 52 -18 88 -83 165 -63 75 -108 81 -137 18 -13 -28 -14 -182 -2
-271 4 -30 4 -77 -1 -105 -5 -27 -6 -97 -3 -155 15 -257 24 -357 35 -383 6
-15 10 -60 10 -100 -1 -40 7 -110 16 -156 15 -74 16 -98 6 -205 -7 -67 -10
-134 -7 -151 24 -145 36 -267 42 -420 5 -140 10 -191 25 -230 15 -39 19 -76
18 -185 0 -74 5 -160 11 -190 17 -83 34 -316 35 -490 0 -94 6 -176 14 -208 8
-33 11 -74 7 -105 -10 -83 -6 -136 15 -191 24 -65 24 -92 -1 -139 -19 -36 -20
-46 -11 -203 9 -138 8 -175 -5 -222 -9 -34 -12 -77 -9 -107 3 -27 7 -67 10
-88 2 -22 -2 -73 -10 -115 -20 -116 -27 -261 -16 -317 6 -34 6 -73 -1 -120 -6
-39 -12 -113 -13 -165 -1 -60 -8 -108 -17 -130 -25 -55 -31 -122 -18 -182 12
-51 11 -58 -13 -109 -18 -40 -26 -78 -31 -150 -3 -53 -13 -119 -22 -145 -8
-27 -19 -104 -23 -170 -6 -99 -12 -128 -30 -157 -14 -23 -25 -64 -31 -114 -17
-147 -38 -224 -82 -298 -9 -17 -20 -57 -24 -90 -15 -135 -180 -535 -242 -587
-33 -27 -88 -48 -184 -68 -50 -10 -63 -18 -108 -67 -69 -75 -103 -137 -107
-192 -8 -108 -51 -141 -182 -141 -107 0 -220 -17 -309 -46 -40 -13 -114 -31
-163 -39 -50 -9 -112 -25 -139 -35 -39 -15 -71 -19 -152 -17 -76 1 -119 -4
-163 -17 -51 -16 -79 -17 -180 -12 -119 7 -194 8 -595 6 -113 0 -243 5 -289
11 -46 6 -107 8 -135 4 -28 -4 -100 -9 -161 -11 -60 -2 -126 -5 -145 -6 -45
-3 -119 33 -164 80 -37 39 -92 111 -152 202 -21 30 -56 76 -80 101 -23 26 -57
75 -74 109 -17 34 -49 81 -71 104 -41 42 -44 49 -53 128 -3 26 -10 56 -16 65
-29 51 -133 320 -156 403 -14 52 -38 138 -54 190 -16 52 -33 120 -39 150 -5
30 -19 77 -30 103 -12 27 -21 64 -21 83 0 19 -7 67 -15 107 -19 97 -35 229
-35 297 0 31 -7 80 -15 108 -9 30 -15 86 -14 134 1 98 -10 137 -53 197 -29 40
-33 57 -44 155 -11 100 -16 117 -50 176 -49 81 -153 190 -183 190 -13 0 -31
-14 -49 -39 -15 -21 -46 -52 -68 -70 -28 -21 -47 -47 -59 -79 -10 -26 -54
-118 -97 -204 -54 -107 -84 -180 -94 -229 -8 -39 -21 -87 -29 -106 -8 -19 -22
-74 -30 -121 -9 -48 -25 -132 -37 -186 -15 -74 -19 -114 -13 -160 8 -71 8 -64
1 -316 -4 -122 -2 -219 5 -260 7 -45 8 -94 1 -159 -9 -91 -20 -115 -48 -104
-23 9 -175 446 -195 559 -6 38 -25 96 -41 129 -16 33 -40 98 -53 145 -12 47
-40 132 -60 190 -43 120 -58 174 -79 280 -8 41 -20 95 -26 120 -6 24 -8 60 -5
80 9 51 -11 160 -46 262 -27 77 -29 96 -24 155 5 55 2 90 -19 177 -21 87 -28
151 -36 330 -6 121 -13 228 -16 236 -12 31 -28 352 -29 580 -1 129 -5 273 -9
320 -6 68 -4 100 11 155 15 59 18 114 18 355 0 157 4 291 9 299 5 8 12 71 17
140 4 69 13 148 20 175 8 31 10 86 6 157 -5 92 -2 121 15 182 15 51 20 99 20
162 -1 61 5 113 18 160 42 151 52 227 47 329 -4 72 -1 112 10 150 8 28 26 100
38 159 31 147 60 175 123 122 28 -23 123 -167 227 -344 42 -71 74 -115 160
-216 28 -33 76 -94 107 -136 63 -85 64 -86 148 -154 88 -71 222 -192 310 -279
41 -41 94 -84 117 -95 27 -13 63 -47 99 -92 31 -39 63 -73 72 -77 57 -23 158
-91 213 -141 92 -83 189 -156 319 -239 63 -40 143 -94 177 -120 59 -45 117
-81 233 -145 30 -17 75 -45 98 -63 24 -19 69 -43 100 -54 31 -12 77 -37 103
-56 26 -19 51 -34 55 -34 5 0 38 -18 74 -40 36 -22 99 -51 141 -65 42 -14 97
-39 124 -56 126 -80 337 -73 433 15 13 11 45 33 70 47 26 14 53 36 59 50 15
28 17 98 4 131 -7 19 -72 96 -156 183 -34 35 -116 72 -209 94 -50 12 -127 39
-172 61 -44 22 -86 40 -92 40 -6 0 -44 28 -84 61 -40 34 -107 84 -148 112 -41
28 -109 85 -150 127 -41 41 -104 98 -140 127 -83 65 -171 159 -218 231 -19 32
-59 82 -88 112 -54 57 -74 93 -74 135 0 13 -15 50 -34 82 -19 32 -44 96 -56
143 -12 47 -36 121 -55 165 -18 44 -38 104 -44 133 -6 29 -19 69 -30 90 -17
33 -43 135 -55 217 -2 17 -11 53 -19 80 -8 28 -18 75 -22 105 -3 30 -17 96
-30 145 -13 50 -29 134 -35 188 -6 55 -19 118 -27 140 -11 29 -16 89 -19 192
-2 83 -7 164 -12 181 -5 16 -8 57 -6 90 13 197 20 502 15 579 -4 50 -6 124 -4
165 1 41 5 138 8 215 5 166 20 350 29 385 4 14 10 77 12 140 3 63 11 151 19
195 8 44 17 118 21 165 3 46 7 87 9 90 2 3 6 32 9 65 9 87 16 113 42 163 19
36 24 61 24 121 1 113 23 222 59 284 32 56 52 133 71 277 6 47 22 117 36 157
13 39 24 80 24 90 0 61 43 134 106 178 49 35 104 87 121 115 32 55 66 65 193
61 211 -6 294 -6 435 3 77 5 224 9 327 10 103 1 191 6 195 10 8 8 55 4 113
-11z m7820 -4429 c69 -46 131 -120 161 -193 40 -97 52 -115 115 -181 31 -32
64 -80 79 -115 15 -32 43 -80 64 -105 70 -84 151 -220 183 -302 17 -46 44
-103 61 -128 43 -64 121 -200 135 -235 6 -16 16 -52 22 -80 6 -27 27 -85 46
-127 19 -42 43 -109 53 -148 11 -39 30 -88 44 -109 33 -50 53 -111 61 -191 8
-68 16 -89 52 -132 12 -15 32 -56 43 -91 14 -41 34 -75 56 -97 19 -19 44 -59
56 -89 11 -31 35 -78 52 -106 18 -27 42 -78 54 -114 13 -35 36 -85 52 -110 16
-25 32 -57 36 -71 4 -14 27 -64 50 -111 24 -47 52 -120 64 -162 11 -42 34 -98
51 -125 28 -46 36 -73 60 -203 6 -31 24 -76 39 -101 36 -56 48 -94 61 -188 7
-49 22 -100 45 -145 18 -38 41 -104 51 -145 16 -72 39 -140 70 -207 8 -18 24
-69 35 -115 11 -45 30 -100 41 -123 33 -67 48 -116 64 -205 9 -53 27 -108 46
-145 23 -44 38 -94 54 -186 15 -88 32 -150 57 -205 24 -53 39 -107 47 -164 12
-89 22 -129 64 -247 15 -42 32 -125 42 -200 8 -70 24 -155 34 -188 35 -116 56
-217 70 -348 6 -50 26 -150 44 -222 34 -132 60 -266 72 -365 4 -30 17 -86 29
-125 13 -38 33 -128 44 -200 12 -71 26 -161 32 -200 7 -38 18 -87 25 -107 21
-59 52 -283 58 -413 3 -66 12 -165 20 -220 9 -55 18 -172 21 -260 3 -88 9
-173 14 -190 21 -68 43 -710 29 -830 -4 -33 -10 -114 -13 -180 -9 -185 -25
-345 -41 -400 -8 -27 -21 -122 -29 -210 -15 -162 -20 -189 -50 -259 -26 -62
-32 -212 -10 -273 l18 -49 -38 -95 c-21 -52 -41 -119 -44 -149 -6 -42 -18 -70
-53 -122 -45 -65 -49 -76 -77 -223 -13 -73 -63 -196 -111 -275 -23 -38 -48
-90 -56 -115 -7 -26 -26 -63 -42 -83 -16 -20 -41 -61 -56 -91 -27 -55 -88
-142 -148 -215 -18 -21 -40 -51 -48 -66 -8 -16 -34 -50 -58 -77 -149 -169
-223 -255 -264 -308 -26 -33 -77 -92 -115 -131 -37 -40 -97 -107 -133 -149
-36 -43 -78 -89 -94 -104 -16 -14 -61 -64 -101 -111 -39 -47 -90 -105 -114
-130 -23 -25 -91 -99 -150 -165 -60 -66 -149 -161 -197 -211 -49 -50 -109
-113 -134 -140 -25 -27 -66 -67 -90 -90 -217 -198 -280 -254 -315 -279 -22
-16 -80 -68 -130 -116 -49 -47 -105 -94 -124 -103 -18 -10 -55 -33 -81 -52
-26 -18 -72 -45 -103 -59 -30 -14 -61 -32 -67 -40 -7 -8 -17 -15 -23 -15 -6 0
-18 -6 -26 -13 -9 -7 -36 -22 -61 -32 -25 -11 -67 -34 -94 -52 -42 -29 -70
-38 -98 -34 -30 4 -146 -47 -203 -89 -37 -27 -86 -55 -109 -60 -22 -6 -87 -28
-143 -50 -56 -22 -130 -44 -165 -50 -35 -5 -83 -16 -108 -23 -58 -17 -90 -12
-90 14 0 38 52 121 124 197 39 42 87 93 104 112 46 49 151 222 183 300 14 36
38 87 53 114 30 56 32 77 11 135 -8 25 -14 74 -13 120 1 103 -17 161 -66 214
-34 36 -78 35 -152 -4 -32 -18 -61 -35 -64 -38 -3 -4 -38 -32 -79 -64 -81 -62
-87 -69 -129 -151 -38 -72 -87 -136 -129 -167 -41 -29 -124 -130 -178 -215
-22 -34 -67 -86 -101 -116 -128 -112 -214 -185 -280 -238 -37 -30 -113 -99
-169 -153 -114 -110 -140 -122 -225 -108 -30 5 -93 12 -139 16 -103 8 -168 32
-241 88 -64 49 -99 111 -150 270 -18 56 -42 114 -52 129 -10 15 -35 66 -54
115 -19 48 -39 92 -43 98 -7 9 -42 103 -84 228 -16 46 -81 147 -139 215 -16
18 -39 56 -52 83 -13 27 -37 66 -53 86 -16 21 -48 73 -71 116 -23 43 -60 97
-83 122 -22 24 -62 85 -88 136 -27 51 -59 104 -71 118 -29 31 -49 87 -42 113
2 11 15 26 27 34 40 26 244 62 395 70 137 7 190 19 293 62 51 22 117 45 147
52 30 7 127 40 215 75 88 34 178 68 200 75 22 7 49 19 60 26 11 7 46 22 77 34
40 15 69 35 95 64 39 44 124 100 268 176 44 23 83 47 87 53 4 7 8 9 8 5 0 -5
9 1 20 12 12 12 26 18 33 14 7 -4 9 -3 4 1 -10 12 22 45 45 45 25 0 23 -16 -6
-48 -13 -15 -43 -49 -68 -77 -24 -27 -57 -68 -74 -91 -38 -52 -133 -138 -181
-163 -21 -11 -54 -36 -74 -55 -21 -21 -64 -47 -100 -60 -35 -14 -82 -33 -104
-44 -22 -11 -60 -25 -85 -32 -91 -25 -118 -46 -181 -143 -32 -51 -59 -103 -59
-117 0 -40 54 -142 92 -176 20 -17 53 -35 74 -38 21 -4 58 -18 83 -30 26 -13
63 -26 84 -30 52 -10 81 -39 66 -67 -27 -52 -104 -141 -182 -212 -46 -42 -99
-98 -117 -124 -18 -26 -58 -68 -87 -92 -57 -46 -62 -52 -89 -144 -9 -32 -25
-64 -35 -71 -10 -7 -25 -25 -33 -41 -13 -25 -13 -32 9 -79 13 -28 32 -71 43
-96 36 -81 108 -130 192 -130 41 0 71 13 180 78 94 56 289 252 384 386 36 51
75 101 87 112 30 27 109 198 109 237 0 41 -49 145 -85 177 -15 14 -34 38 -42
54 -14 27 -13 30 6 50 19 19 34 21 139 23 85 1 148 9 229 27 112 26 120 30
440 196 40 21 94 56 120 77 27 22 64 50 83 63 19 13 58 44 85 69 28 25 75 66
104 91 99 82 201 173 201 179 0 9 40 55 133 152 45 47 91 100 102 117 47 73
112 160 150 202 65 70 122 159 148 231 31 82 63 146 88 172 10 12 19 24 19 29
0 5 15 30 34 57 43 61 72 117 81 158 3 18 18 49 32 70 33 48 93 176 93 198 0
9 14 47 31 83 75 162 101 234 135 370 13 51 35 119 50 150 36 79 53 143 60
237 3 44 18 121 34 170 37 118 40 133 51 245 17 191 29 284 39 314 13 40 4
278 -12 322 -11 31 -9 40 22 100 l33 65 0 151 c0 113 4 161 15 187 11 29 13
61 8 158 -10 178 12 243 80 243 18 0 68 -11 111 -25 110 -35 211 -34 373 4 69
16 155 36 191 45 98 22 137 41 157 77 39 71 60 94 111 125 70 41 83 58 121
157 17 45 42 105 56 133 39 80 54 236 46 484 -3 113 -5 259 -3 326 1 79 -3
149 -13 204 -9 45 -16 112 -16 149 0 36 -7 91 -15 121 -20 72 -34 162 -46 285
-22 221 -27 251 -54 308 -22 49 -26 67 -21 106 6 44 3 67 -24 186 -14 59 -153
349 -184 383 -11 13 -37 32 -58 43 -20 10 -57 36 -82 58 -38 33 -55 41 -103
46 -32 3 -86 13 -120 22 -65 16 -145 14 -180 -6 -10 -6 -49 -22 -87 -36 -91
-33 -209 -108 -248 -157 -17 -22 -63 -61 -102 -87 -54 -35 -81 -62 -113 -111
-24 -36 -71 -94 -106 -130 -35 -36 -94 -108 -132 -160 -37 -52 -91 -120 -119
-151 -118 -130 -245 -318 -246 -364 -1 -28 -84 -213 -107 -237 -38 -40 -78
-31 -178 36 -115 78 -164 103 -220 117 -45 10 -128 50 -225 107 -19 11 -57 26
-85 33 -27 7 -74 23 -102 36 -29 13 -74 28 -101 33 -68 12 -216 74 -352 144
-184 96 -420 164 -620 178 -171 12 -214 4 -307 -61 -68 -49 -187 -178 -232
-252 -16 -27 -24 -56 -24 -87 0 -45 38 -233 68 -335 8 -27 17 -90 21 -140 4
-57 16 -116 30 -154 36 -96 81 -294 99 -436 27 -220 35 -248 82 -299 28 -29
28 -50 -1 -123 -8 -22 -15 -60 -16 -84 0 -51 23 -227 50 -381 10 -58 21 -122
25 -144 6 -38 27 -74 84 -149 17 -21 39 -67 51 -102 12 -35 30 -75 40 -88 46
-58 268 -137 384 -137 54 0 118 24 171 64 30 22 57 36 145 74 29 13 78 53 135
111 202 205 313 312 363 350 24 19 54 55 67 81 13 27 38 61 55 77 17 15 45 43
63 62 53 57 92 95 123 121 16 14 46 52 66 85 52 85 135 145 201 145 32 0 92
-26 131 -55 17 -13 56 -37 86 -55 108 -63 197 -139 250 -211 29 -40 55 -83 59
-98 12 -44 -7 -588 -24 -687 -8 -50 -15 -142 -15 -205 0 -62 -5 -138 -11 -168
-8 -39 -9 -79 -3 -132 8 -61 6 -95 -7 -165 -10 -49 -18 -114 -17 -144 0 -60
-22 -201 -45 -295 -9 -33 -16 -78 -16 -100 0 -22 -8 -65 -17 -95 -8 -30 -25
-93 -36 -140 -11 -47 -29 -119 -40 -160 -12 -41 -28 -102 -36 -135 -27 -110
-44 -159 -61 -182 -17 -21 -23 -39 -50 -158 -14 -58 -101 -239 -147 -305 -40
-57 -57 -91 -82 -163 -11 -31 -42 -85 -68 -121 -26 -35 -60 -86 -74 -112 -29
-50 -142 -201 -201 -268 -20 -23 -65 -84 -99 -136 -67 -100 -75 -108 -128
-127 -66 -24 -75 -6 -79 162 -1 66 -3 131 -4 145 0 14 2 59 6 100 6 64 3 89
-20 175 -26 96 -59 164 -80 165 -31 2 -85 73 -85 113 0 16 -18 66 -39 112 -52
112 -92 132 -147 74 -16 -17 -49 -42 -73 -57 -51 -30 -85 -61 -130 -120 -18
-23 -54 -54 -79 -69 -26 -14 -58 -36 -71 -47 -29 -26 -123 -143 -140 -175 -25
-46 -96 -114 -140 -133 -25 -10 -66 -38 -92 -61 -54 -49 -123 -99 -194 -142
-27 -17 -78 -58 -112 -92 -42 -40 -90 -74 -145 -101 -81 -40 -158 -85 -246
-144 -24 -15 -64 -33 -90 -39 -26 -6 -99 -25 -162 -42 -143 -38 -226 -45 -269
-23 -51 27 -38 81 37 161 93 98 150 171 182 235 18 36 46 81 61 100 16 19 29
38 29 43 0 4 20 38 44 75 25 37 56 98 71 137 14 38 37 89 50 113 13 23 38 87
55 141 17 55 42 116 55 135 40 59 52 87 66 161 7 39 24 95 37 125 32 73 63
214 72 330 4 52 15 118 25 145 9 28 25 103 35 167 10 65 23 133 29 150 6 18
17 53 25 78 26 83 57 155 81 186 41 53 83 146 94 209 7 33 21 86 32 118 19 53
20 68 10 192 -7 96 -14 139 -25 150 -20 20 -149 20 -205 0 -23 -8 -64 -35 -91
-61 -27 -26 -66 -58 -87 -72 -58 -39 -145 -121 -172 -161 -13 -20 -36 -49 -51
-66 -16 -16 -45 -61 -65 -100 -66 -125 -126 -187 -174 -181 -24 4 -26 61 -3
99 22 36 39 85 47 137 15 94 29 151 55 210 15 36 31 97 35 135 4 39 13 88 21
110 8 22 19 94 24 160 5 66 19 165 31 219 18 85 20 112 13 180 -9 77 -2 345
11 431 18 129 17 220 -5 305 -29 112 -37 191 -26 268 6 44 4 103 -8 200 -9 75
-16 168 -16 206 0 39 -9 102 -19 140 -11 39 -22 109 -26 156 -4 49 -17 110
-31 148 -16 44 -26 95 -30 161 -5 93 -18 155 -35 177 -12 14 -59 258 -59 303
0 51 37 215 59 265 23 49 46 157 62 286 6 52 22 132 35 177 13 45 28 128 33
185 15 146 40 220 81 233 41 13 190 -17 210 -43 26 -35 106 -93 142 -102 23
-7 75 -31 113 -55 80 -49 177 -82 283 -95 41 -5 95 -16 120 -24 57 -18 220
-36 324 -36 114 0 323 19 400 35 37 8 100 15 140 15 40 0 109 9 153 20 44 11
98 20 120 20 22 0 67 7 100 15 33 8 76 14 95 15 19 0 68 16 110 35 78 35 327
134 393 155 21 6 61 28 90 47 29 19 82 53 120 74 81 46 180 128 228 187 19 24
58 59 87 79 28 19 52 38 52 42 0 4 19 28 43 53 59 64 78 91 127 186 41 80 91
141 221 272 35 35 74 91 108 155 61 115 65 130 162 650 27 149 29 166 19 265
-15 146 -27 215 -51 290 -11 36 -31 115 -44 176 -13 66 -36 137 -55 175 -18
35 -41 90 -52 123 -11 33 -33 80 -50 104 -17 24 -40 69 -52 100 -65 165 -275
391 -516 555 -31 21 -49 44 -71 95 -47 104 -77 201 -85 272 -3 36 -17 91 -30
123 -14 31 -31 89 -39 128 -8 39 -20 79 -25 89 -6 10 -10 47 -10 81 0 47 -10
92 -41 183 l-42 121 18 130 c22 171 42 201 105 159z m-513 -1581 c96 -42 176
-108 208 -169 10 -22 32 -58 48 -82 57 -85 85 -382 51 -531 -19 -88 -54 -142
-136 -214 -49 -43 -85 -64 -144 -86 -44 -16 -97 -37 -119 -47 -50 -22 -250
-32 -310 -15 -75 20 -178 95 -237 174 -57 74 -69 100 -88 202 -7 33 -24 94
-38 135 -20 55 -27 95 -27 150 0 71 3 80 45 153 28 49 58 87 82 103 21 15 38
30 38 35 0 12 141 129 170 141 14 6 75 28 135 49 149 52 205 53 322 2z m-1677
-754 c109 -15 169 -34 248 -79 76 -44 160 -133 181 -190 18 -50 26 -292 12
-361 -8 -39 -26 -75 -62 -125 -108 -148 -213 -232 -379 -301 -119 -50 -193
-61 -269 -43 -90 21 -222 78 -275 119 -28 21 -64 46 -79 56 -28 18 -134 143
-156 182 -22 43 -61 180 -61 219 0 47 39 183 68 240 47 89 206 218 318 258 23
8 74 19 115 25 41 6 85 13 99 15 32 5 143 -2 240 -15z m-9724 -2066 c14 -21
23 -54 27 -100 3 -37 23 -124 45 -193 22 -69 43 -150 47 -180 11 -92 15 -113
31 -170 25 -92 85 -253 111 -298 22 -37 25 -54 24 -131 -1 -75 3 -104 29 -180
16 -50 30 -98 30 -106 0 -8 29 -102 65 -208 36 -107 65 -199 65 -205 0 -6 16
-46 36 -88 20 -43 53 -146 74 -229 26 -105 51 -177 83 -241 47 -94 102 -282
92 -315 -10 -31 -49 -32 -142 -5 -105 31 -270 56 -372 56 -82 0 -143 15 -165
39 -7 9 -23 42 -35 74 -11 31 -34 83 -50 115 -16 31 -38 92 -50 135 -12 43
-32 100 -45 126 -21 40 -26 72 -35 195 -6 80 -13 151 -16 156 -3 5 -10 51 -15
102 -25 236 -31 276 -50 320 -19 45 -19 50 -5 85 9 21 21 85 26 143 14 137 14
144 -1 180 -8 19 -10 49 -6 83 19 161 27 285 31 487 5 260 13 307 62 356 44
44 78 43 109 -3z m6973 -510 c28 -40 35 -61 42 -128 5 -44 12 -91 16 -105 4
-14 7 -108 8 -210 1 -150 6 -207 24 -300 19 -94 23 -134 18 -220 -4 -70 -1
-141 10 -212 14 -98 13 -113 -2 -173 -9 -36 -16 -87 -15 -113 2 -76 -18 -344
-28 -382 -27 -102 -64 -130 -173 -130 -177 1 -328 62 -375 152 -21 40 -17 134
7 198 11 30 23 88 26 127 5 68 9 76 49 124 47 54 51 65 57 144 2 28 21 93 42
145 54 138 73 203 80 278 12 133 17 158 46 256 16 54 29 118 29 143 0 24 7 60
15 79 20 50 45 197 45 272 0 66 12 102 33 102 7 0 28 -21 46 -47z m-8253
-1355 c31 -33 41 -58 42 -102 1 -26 13 -55 36 -90 19 -28 37 -69 41 -91 3 -22
22 -74 40 -115 31 -68 33 -79 24 -119 -14 -62 -21 -73 -82 -119 -55 -43 -95
-60 -207 -92 -36 -10 -103 -34 -150 -54 -61 -26 -94 -35 -118 -32 -87 13 -84
47 26 278 27 57 52 118 56 136 3 18 19 64 36 102 16 38 41 113 53 167 30 127
50 156 117 176 20 6 59 -15 86 -45z m3102 -505 c32 -26 54 -57 77 -107 68
-148 194 -335 286 -426 37 -36 85 -97 108 -136 28 -50 65 -93 117 -140 l77
-69 151 0 c132 0 158 -3 209 -23 32 -12 77 -22 100 -22 23 0 79 -13 124 -29
94 -32 182 -38 332 -21 69 8 122 8 195 -1 56 -6 168 -11 250 -11 81 1 180 -3
218 -8 54 -6 82 -5 121 7 46 14 57 13 114 -2 46 -13 81 -15 126 -11 34 4 127
9 207 11 136 3 146 2 167 -17 55 -51 35 -123 -81 -293 -35 -52 -74 -121 -86
-152 -12 -32 -39 -86 -61 -121 -21 -35 -39 -67 -39 -71 0 -4 -9 -25 -19 -47
-20 -42 -62 -198 -81 -302 -8 -47 -8 -98 1 -205 11 -131 16 -182 18 -182 1 0
17 -45 36 -100 29 -82 91 -204 114 -225 3 -3 13 -21 23 -40 44 -93 201 -250
249 -250 10 0 20 -4 24 -9 3 -5 19 -12 35 -16 17 -4 30 -10 30 -15 0 -5 8 -11
19 -15 24 -7 61 -39 61 -53 0 -19 99 -99 131 -106 17 -3 62 -6 99 -6 37 0 92
-5 121 -11 30 -6 101 -10 158 -10 139 1 188 -13 352 -106 59 -34 214 -78 314
-91 167 -20 373 -3 545 47 36 10 132 35 215 55 159 39 267 85 310 133 14 15
41 51 60 80 39 57 82 93 118 97 30 4 82 37 105 67 20 25 46 75 80 149 11 25
32 71 47 104 25 53 27 64 21 136 -7 71 -4 86 24 167 49 144 56 199 35 303 -8
41 -19 113 -25 160 -12 99 -51 224 -86 276 -92 136 34 171 283 80 132 -48 211
-34 305 53 81 74 79 227 -4 317 -52 56 -209 173 -332 247 -153 92 -159 127
-50 292 36 55 72 113 79 130 7 16 34 52 59 80 25 27 77 85 116 127 55 61 70
83 70 108 0 72 106 121 150 70 31 -35 61 -172 67 -298 3 -64 12 -153 21 -197
9 -50 16 -148 18 -260 2 -99 6 -216 10 -260 3 -44 6 -120 5 -170 -1 -49 3
-126 10 -170 11 -76 10 -83 -11 -125 -20 -38 -21 -53 -16 -120 4 -42 3 -87 -2
-101 -5 -13 -13 -71 -16 -129 -11 -172 -35 -330 -61 -409 -14 -40 -25 -80 -25
-89 0 -8 -20 -59 -45 -114 -25 -54 -56 -138 -69 -187 -13 -49 -36 -109 -50
-133 -14 -25 -26 -56 -26 -69 -1 -37 -34 -96 -104 -186 -35 -44 -72 -103 -82
-130 -27 -73 -90 -171 -153 -238 -65 -70 -174 -212 -198 -258 -9 -18 -34 -51
-57 -74 -151 -154 -154 -158 -162 -236 -5 -43 -2 -62 16 -96 31 -62 24 -93
-25 -109 -48 -16 -85 -48 -85 -75 0 -11 18 -36 40 -56 22 -20 53 -57 69 -83
16 -25 38 -49 48 -51 82 -24 160 -38 184 -33 16 3 98 38 182 77 84 39 170 79
192 88 22 10 65 38 95 62 30 24 105 82 166 129 62 47 154 123 204 168 88 81
150 119 170 107 14 -9 12 -53 -4 -111 -8 -27 -17 -80 -21 -119 -5 -53 -14 -84
-40 -130 -56 -99 -107 -158 -165 -191 -30 -18 -72 -47 -93 -64 -21 -18 -57
-45 -80 -60 -47 -30 -112 -97 -145 -151 -12 -20 -41 -49 -64 -64 -24 -16 -78
-62 -120 -104 -170 -168 -254 -233 -332 -255 -29 -9 -72 -30 -97 -48 -114 -84
-159 -110 -223 -129 -59 -18 -79 -30 -142 -90 -58 -55 -80 -69 -106 -70 -18
-1 -37 0 -43 1 -51 14 -66 11 -106 -24 -43 -36 -119 -66 -221 -86 -40 -8 -74
-24 -110 -51 -29 -22 -71 -45 -93 -51 -22 -6 -59 -17 -82 -25 -40 -15 -82 -14
-145 2 -21 5 -43 -1 -87 -24 -33 -17 -76 -31 -94 -31 -19 0 -54 -8 -78 -17
-28 -10 -77 -17 -134 -18 -111 -2 -259 -28 -334 -59 -31 -13 -80 -26 -109 -30
-29 -4 -68 -14 -87 -23 -31 -15 -40 -15 -95 -2 -89 21 -209 10 -357 -35 -68
-20 -131 -36 -140 -36 -42 -1 -93 -38 -142 -103 -79 -106 -101 -140 -101 -160
0 -10 20 -40 45 -66 25 -26 45 -56 45 -66 0 -45 -34 -142 -58 -168 -89 -94
-251 -149 -647 -223 -49 -9 -108 -23 -130 -31 -164 -58 -286 -61 -432 -10
-127 44 -194 55 -418 66 -130 7 -211 17 -290 35 -60 14 -123 26 -138 26 -26 0
-85 20 -208 70 -25 11 -65 22 -88 26 -77 12 -99 36 -210 219 -46 78 -137 163
-209 198 -61 29 -66 29 -130 19 -56 -9 -93 -8 -217 9 -309 41 -770 55 -935 29
-102 -16 -634 -16 -766 0 -47 6 -125 24 -174 39 -48 16 -143 39 -211 51 -133
23 -144 27 -202 73 -21 16 -59 37 -85 47 -59 22 -73 42 -48 69 15 17 34 20
139 24 174 6 330 44 452 109 11 6 44 37 74 70 38 41 54 66 54 86 0 24 -27 104
-70 205 -21 48 -96 118 -164 152 -30 15 -77 44 -105 65 -28 21 -80 47 -117 58
-45 14 -87 36 -129 69 -35 27 -79 59 -99 71 -47 28 -163 155 -259 282 -19 26
-54 65 -77 87 -26 25 -60 78 -95 149 -94 188 -180 338 -223 386 -32 35 -143
241 -160 298 -9 30 -72 174 -124 285 -21 44 -43 109 -50 144 -7 36 -30 103
-51 150 -21 48 -53 140 -70 206 -32 124 -58 204 -83 265 -21 48 -55 199 -66
286 -5 39 -15 84 -23 100 -9 16 -28 66 -43 112 -24 75 -27 95 -23 190 5 135
18 163 115 244 41 35 100 86 131 114 76 69 224 145 237 123 4 -5 11 -7 16 -4
30 19 10 -94 -38 -210 -13 -33 -26 -67 -28 -75 -2 -8 -15 -64 -30 -125 -21
-87 -25 -124 -21 -185 4 -41 8 -130 11 -196 5 -135 8 -148 58 -226 36 -56 55
-109 63 -182 6 -50 25 -84 116 -204 57 -75 83 -100 137 -132 43 -25 77 -39 99
-38 17 1 40 -6 50 -15 10 -10 21 -15 24 -11 6 6 31 -26 66 -84 36 -58 86 -80
190 -83 34 -1 62 -6 62 -10 0 -5 11 -9 25 -9 14 0 25 -3 25 -7 0 -5 15 -9 33
-9 118 -4 228 -14 262 -23 22 -6 99 -14 170 -17 119 -4 141 -2 265 25 130 30
260 81 260 104 0 6 3 8 6 5 8 -9 153 65 199 101 58 45 56 44 101 74 41 27 67
32 149 24 17 -1 68 8 115 20 47 13 114 30 150 39 119 29 146 42 187 92 21 26
54 63 73 82 19 19 45 46 57 60 32 35 53 52 96 79 42 26 113 106 150 171 33 58
110 276 138 392 18 74 21 104 15 171 -4 45 -11 132 -15 192 -6 99 -10 116 -37
160 -16 28 -43 82 -59 120 -55 130 -117 240 -169 296 -78 84 -129 144 -216
254 -44 55 -96 119 -116 142 -65 75 -62 138 9 200 76 67 147 53 252 -47 39
-37 94 -82 123 -100 29 -18 59 -45 67 -60 21 -40 113 -139 146 -155 15 -8 49
-15 75 -15 67 0 230 81 305 152 90 84 124 194 77 253 -20 26 -21 31 -9 90 12
58 11 67 -9 112 -12 26 -24 73 -27 103 -3 30 -15 72 -25 94 -28 55 -25 196 5
234 13 17 15 16 65 -25z m-3720 -874 c3 -30 -2 -41 -24 -58 -40 -32 -59 -24
-59 24 -1 46 25 78 58 73 17 -2 23 -11 25 -39z m1447 -377 c22 -11 67 -46 100
-77 80 -75 139 -102 240 -110 120 -9 151 -20 201 -73 74 -77 86 -166 44 -323
-19 -69 -21 -125 -7 -152 8 -15 16 -24 19 -22 3 3 18 -19 33 -47 16 -29 44
-74 62 -99 55 -77 92 -216 63 -234 -5 -3 -10 -22 -10 -41 0 -19 -4 -33 -8 -30
-5 3 -6 -9 -4 -25 3 -22 -2 -37 -18 -54 -17 -18 -23 -37 -24 -77 l-1 -53 120
-5 c91 -4 130 -10 160 -25 55 -27 58 -55 8 -86 -54 -34 -178 -34 -241 -1 -23
12 -49 22 -56 22 -8 0 -39 -26 -70 -57 -44 -47 -81 -71 -188 -125 -111 -56
-151 -71 -243 -89 -104 -21 -113 -21 -175 -6 -36 8 -111 15 -170 16 -103 0
-106 0 -185 -40 -44 -22 -91 -41 -105 -43 -14 -1 -31 -6 -38 -10 -6 -4 -20 -2
-31 4 -11 5 -22 6 -25 1 -3 -4 -41 -8 -83 -7 -89 2 -149 23 -162 58 -7 20 -3
25 38 45 52 26 82 28 145 11 37 -10 54 -9 92 3 55 17 83 58 87 127 1 23 5 42
9 42 14 0 3 24 -19 43 -13 10 -23 23 -23 29 0 5 -16 29 -35 52 -19 24 -32 46
-28 49 3 4 2 7 -4 7 -24 0 -44 118 -43 252 1 82 -3 144 -10 163 -7 17 -13 35
-14 40 -1 6 -15 47 -29 93 -32 98 -34 170 -8 229 26 57 77 110 125 132 63 28
163 115 175 153 5 18 17 72 26 120 20 113 38 155 86 200 63 59 136 66 224 20z
m6816 22 c55 -22 90 -74 125 -181 44 -139 79 -182 185 -224 80 -31 105 -54
141 -126 28 -58 32 -75 32 -147 0 -44 -6 -112 -13 -149 -13 -66 -9 -160 8
-182 5 -5 16 -41 26 -80 10 -38 22 -74 26 -80 4 -5 8 -26 9 -45 7 -146 -1
-219 -32 -288 -11 -24 -17 -46 -14 -49 3 -3 -4 -14 -15 -26 -10 -11 -19 -27
-19 -34 0 -7 -19 -22 -42 -34 -38 -20 -57 -22 -156 -20 -94 1 -126 -2 -183
-21 -44 -14 -71 -28 -75 -40 -3 -10 -10 -17 -17 -15 -7 1 -10 -10 -9 -28 5
-61 -108 -100 -176 -60 -34 20 -42 50 -19 74 10 12 9 13 -7 7 -16 -5 -17 -4
-7 8 15 18 -3 29 -81 50 -29 8 -74 23 -101 35 -53 23 -257 87 -300 95 -16 3
-34 9 -40 14 -7 5 -24 12 -39 16 -23 5 -98 67 -98 81 0 2 -11 16 -25 31 -14
15 -25 33 -25 40 0 7 -6 14 -12 17 -20 6 -15 329 5 385 9 23 13 42 9 42 -4 0
-2 4 4 8 16 10 54 88 54 111 0 11 6 26 13 33 16 17 17 30 18 186 0 73 4 143 8
155 13 35 71 87 121 110 30 14 79 23 150 28 157 12 179 23 256 139 57 87 119
145 174 164 59 20 90 20 141 0z m-1022 -1614 c11 0 37 -10 58 -22 21 -12 50
-28 66 -35 30 -16 37 -37 10 -29 -10 3 -36 8 -58 12 -31 6 -35 9 -20 14 15 5
11 8 -20 14 -22 4 -46 12 -52 18 -7 6 -19 8 -27 5 -8 -3 -19 0 -25 7 -16 19 7
38 30 26 10 -6 27 -10 38 -10z m1828 -110 c-7 -47 -86 -66 -128 -31 -23 20
-23 22 -6 35 12 9 41 14 78 14 49 -1 58 -4 56 -18z m-74 -2946 c23 -11 46 -36
67 -73 19 -32 57 -75 89 -101 l56 -45 155 4 c282 6 283 6 319 -13 76 -40 115
-121 124 -258 3 -48 13 -100 21 -116 11 -21 15 -58 15 -120 0 -76 4 -101 26
-154 15 -35 33 -101 40 -148 9 -60 25 -114 58 -185 25 -55 50 -119 56 -142 7
-26 30 -62 59 -95 43 -47 49 -59 51 -103 2 -48 26 -113 61 -165 39 -58 56
-128 70 -285 10 -113 44 -225 85 -280 15 -19 38 -65 51 -101 13 -36 38 -82 54
-102 16 -21 39 -66 51 -102 11 -36 38 -85 58 -110 114 -138 244 -427 270 -595
6 -43 28 -109 55 -170 25 -55 52 -134 61 -175 21 -91 44 -160 55 -160 13 0 29
-52 33 -110 3 -40 13 -69 35 -104 17 -27 36 -73 43 -104 6 -30 20 -71 32 -91
15 -27 22 -63 28 -146 7 -109 23 -178 89 -375 28 -83 28 -89 24 -258 -3 -138
0 -181 12 -215 33 -90 36 -110 26 -146 -6 -20 -14 -115 -17 -211 -4 -122 -13
-211 -30 -295 -12 -66 -29 -156 -35 -200 -15 -95 -59 -267 -89 -347 -11 -31
-28 -102 -36 -158 -9 -59 -25 -120 -39 -148 -13 -26 -27 -58 -31 -72 -4 -14
-24 -59 -45 -101 -21 -41 -46 -111 -55 -155 -27 -125 -113 -314 -172 -380 -19
-21 -40 -52 -47 -69 -28 -67 -76 -70 -97 -7 -7 20 -16 93 -19 162 -5 91 -17
163 -42 265 -20 77 -43 176 -53 220 -18 82 -57 170 -97 217 -13 14 -52 41 -88
59 -59 30 -73 33 -150 32 -89 0 -143 -11 -224 -46 -39 -17 -56 -32 -88 -81
-44 -69 -255 -261 -294 -269 l-25 -4 7 96 c5 71 12 105 28 131 54 90 78 155
78 214 0 41 9 81 28 130 15 39 31 96 35 126 4 30 21 91 37 135 61 164 128 409
139 504 6 53 23 125 36 161 14 36 31 85 39 110 37 121 81 633 70 813 -8 130
-64 412 -96 484 -25 58 -63 200 -95 356 -14 70 -32 142 -39 160 -8 18 -21 48
-29 67 -9 19 -31 78 -50 130 -19 52 -42 111 -51 131 -8 20 -20 67 -26 104 -6
38 -22 91 -34 120 -13 28 -33 82 -45 118 -11 37 -34 99 -51 136 -16 38 -39
111 -51 163 -11 51 -34 134 -49 184 -16 50 -36 135 -45 190 -21 131 -84 278
-154 361 -20 23 -49 73 -65 110 -16 37 -44 100 -62 138 -18 39 -40 96 -49 128
-9 31 -27 70 -39 85 -13 15 -28 37 -35 49 -15 30 -14 131 3 197 8 31 13 66 10
78 -32 163 -37 205 -35 308 2 124 -13 207 -86 471 -31 114 -33 131 -23 170 14
50 26 68 55 79 31 13 51 12 88 -6z m-9734 -74 c25 -11 89 -29 141 -40 52 -10
129 -29 170 -41 57 -16 102 -21 190 -21 129 1 166 -10 204 -62 34 -46 37 -73
15 -139 -11 -32 -24 -81 -29 -107 -5 -26 -23 -69 -40 -96 -16 -26 -30 -54 -30
-61 0 -8 -13 -39 -28 -71 -31 -62 -42 -109 -68 -277 -9 -60 -25 -141 -36 -180
-13 -43 -22 -108 -25 -170 -1 -55 -7 -131 -13 -170 -5 -38 -12 -101 -15 -139
-3 -38 -9 -74 -12 -80 -4 -6 -10 -60 -14 -121 -3 -60 -12 -150 -18 -200 -7
-49 -15 -103 -17 -120 -2 -16 -31 -76 -64 -131 -41 -68 -64 -121 -72 -160 -8
-38 -12 -177 -12 -384 l-1 -325 33 -80 c32 -75 33 -84 27 -155 -4 -41 -9 -140
-11 -220 -1 -80 -8 -209 -13 -287 -8 -99 -8 -185 -1 -290 6 -81 12 -188 14
-238 3 -105 19 -204 42 -266 9 -24 18 -82 19 -129 5 -134 22 -271 40 -319 9
-24 23 -98 31 -165 19 -152 20 -159 55 -228 15 -31 31 -73 35 -95 10 -55 92
-272 118 -313 59 -93 92 -199 66 -215 -7 -4 -27 6 -48 27 -42 38 -97 78 -109
78 -17 0 -64 53 -88 99 -26 52 -97 121 -182 178 -62 41 -100 85 -142 162 -28
53 -89 113 -115 114 -52 1 -69 -24 -85 -124 -29 -180 -40 -261 -46 -329 -6
-75 -22 -212 -30 -260 -3 -14 -9 -81 -15 -150 -13 -150 -26 -197 -62 -223 -25
-19 -31 -19 -70 -6 -83 27 -135 80 -210 215 -15 27 -34 60 -42 74 -9 14 -29
54 -46 90 -17 36 -42 84 -56 107 -13 23 -31 72 -39 110 -7 37 -30 131 -50 208
-36 138 -37 145 -45 410 -9 288 -14 361 -35 495 -14 95 -13 320 4 470 5 52 10
243 11 423 1 519 20 746 75 887 19 52 40 126 46 166 5 40 28 126 50 191 58
172 69 230 69 361 1 81 6 129 16 157 38 98 52 146 69 235 9 52 27 121 40 153
13 32 29 100 35 155 17 148 50 311 75 372 15 36 26 88 30 148 12 153 39 171
264 171 l133 1 72 38 c53 29 77 48 93 77 12 22 39 49 59 60 50 28 73 61 80
117 6 41 2 56 -35 130 -45 89 -76 118 -204 187 -161 87 -276 199 -292 284 -14
72 33 84 144 37z m9154 -202 c24 -28 22 -113 -3 -205 -20 -70 -20 -77 -5 -205
8 -73 15 -161 15 -195 0 -75 11 -107 51 -144 33 -31 33 -33 12 -119 -5 -18 -5
-63 -1 -100 13 -115 11 -199 -7 -226 -24 -37 -87 -33 -199 15 -50 21 -111 44
-136 51 -82 21 -114 34 -166 66 -28 18 -82 43 -120 57 -38 14 -87 33 -109 42
-22 10 -68 21 -103 25 -44 6 -80 19 -123 44 -32 19 -85 46 -117 59 -74 30
-298 207 -400 317 -83 89 -106 228 -44 267 10 6 77 23 148 36 122 25 148 29
254 42 25 4 103 19 173 36 78 17 157 29 200 29 97 0 238 44 322 100 22 15 46
29 53 31 7 3 75 3 150 1 123 -3 139 -5 155 -24z m-7879 -144 c151 -17 186 -29
211 -72 30 -50 78 -67 250 -87 28 -3 66 -8 85 -11 19 -2 51 -7 71 -9 20 -3 81
-16 135 -29 55 -14 161 -30 239 -36 77 -6 178 -20 225 -31 47 -12 135 -25 195
-29 445 -34 481 -39 516 -76 16 -17 19 -30 15 -51 -8 -37 -28 -48 -150 -88
-56 -18 -139 -51 -186 -73 -47 -22 -107 -47 -135 -55 -27 -8 -89 -33 -137 -56
-48 -22 -101 -41 -118 -41 -64 0 -319 -115 -379 -171 -13 -12 -35 -47 -48 -78
-44 -100 -123 -206 -178 -240 -70 -42 -229 -122 -311 -156 -38 -16 -85 -39
-105 -51 -19 -12 -73 -41 -120 -64 -46 -24 -94 -51 -107 -61 -13 -10 -49 -23
-80 -28 -31 -6 -78 -16 -104 -22 -26 -6 -56 -8 -67 -4 -24 7 -45 67 -36 103 3
14 8 99 11 188 3 117 8 176 20 211 10 26 18 71 20 98 18 298 24 395 28 420 3
17 -2 62 -9 100 -8 39 -13 105 -10 148 4 91 -8 142 -41 178 -39 41 -29 101 24
144 32 26 103 54 121 49 8 -3 77 -12 155 -20z m6169 -515 c63 -33 164 -120
222 -192 79 -97 92 -135 76 -227 -28 -159 -32 -217 -36 -600 -3 -301 -7 -426
-18 -485 -9 -44 -18 -108 -22 -142 -10 -106 -30 -154 -89 -219 l-53 -59 -64 0
c-93 0 -165 38 -229 120 -50 62 -100 94 -238 151 -54 22 -107 80 -139 153 -13
31 -36 73 -50 94 l-27 38 18 68 c22 85 12 131 -43 194 -20 24 -48 73 -61 108
-13 35 -29 71 -35 79 -20 26 -26 52 -14 66 19 23 37 16 61 -21 13 -19 32 -36
43 -37 25 -5 75 11 75 23 0 5 13 15 30 24 27 14 32 14 67 -5 49 -26 77 -25
197 5 71 17 114 34 152 60 29 20 69 41 90 47 42 11 95 63 146 142 25 39 33 63
36 112 6 83 -9 122 -71 187 -39 40 -77 66 -149 101 -59 28 -104 56 -114 72
-16 23 -16 28 -1 59 34 71 173 119 240 84z m-2626 -89 c48 -12 100 -26 115
-31 36 -15 71 -74 63 -108 -9 -36 -78 -105 -147 -147 -64 -39 -230 -210 -257
-264 -10 -19 -23 -54 -31 -78 -25 -78 -91 -68 -134 20 -34 70 -76 222 -76 277
0 45 34 131 51 131 5 0 55 44 110 98 55 53 112 102 127 109 39 17 79 16 179
-7z m2170 -196 c32 -4 48 -12 63 -34 11 -16 53 -45 96 -66 77 -38 124 -84 124
-121 0 -24 -32 -54 -87 -82 -23 -11 -58 -31 -77 -45 -25 -16 -60 -26 -124 -35
-136 -17 -194 -14 -254 12 -29 13 -79 34 -110 47 -67 26 -225 158 -234 195 -3
13 -1 32 5 43 36 67 364 114 598 86z m-1435 -24 c118 -9 158 -21 192 -59 52
-57 -33 -187 -166 -253 -76 -37 -134 -53 -228 -62 -30 -3 -77 -8 -105 -11 -54
-7 -216 17 -272 40 -18 8 -33 21 -33 30 0 23 24 67 52 92 66 61 381 230 433
232 6 0 62 -4 127 -9z m-1448 -69 c-15 -77 -9 -279 9 -347 34 -123 18 -166
-66 -178 -58 -9 -165 2 -189 19 -11 7 -37 36 -58 66 -51 67 -52 104 -6 217 26
61 50 99 94 148 74 80 178 147 206 132 16 -9 17 -16 10 -57z m2023 -264 c68
-72 104 -145 119 -242 9 -62 -34 -73 -137 -35 -114 43 -155 114 -131 226 25
122 68 136 149 51z m2037 4 c25 -22 55 -46 67 -54 22 -16 48 -76 49 -114 0
-33 19 -71 72 -146 76 -106 75 -101 24 -251 -25 -72 -52 -164 -61 -204 -15
-65 -22 -78 -69 -125 -38 -38 -58 -69 -75 -115 -19 -54 -28 -65 -63 -83 -23
-12 -57 -21 -77 -21 -68 0 -85 57 -60 212 16 107 56 710 59 887 0 30 26 53 60
53 19 0 44 -13 74 -39z m-5266 -655 c20 -10 101 -15 302 -20 355 -9 369 -9
502 14 130 23 176 25 215 9 15 -7 84 -12 153 -13 101 -1 143 -6 216 -27 104
-29 140 -55 130 -93 -6 -26 -8 -28 -74 -88 -38 -35 -139 -88 -166 -88 -7 0
-22 -9 -33 -19 -12 -11 -22 -18 -24 -16 -2 2 -33 -19 -68 -45 -36 -27 -76 -52
-89 -55 -13 -3 -31 -13 -39 -21 -25 -25 -125 -10 -283 42 -80 26 -147 51 -148
56 -2 4 -8 6 -13 3 -4 -3 -26 3 -48 15 -44 22 -91 26 -122 10 -48 -26 -78
-161 -61 -268 7 -39 12 -106 12 -149 0 -44 9 -112 20 -157 11 -43 20 -89 20
-102 0 -12 4 -25 9 -28 4 -3 11 -21 14 -39 3 -19 21 -58 40 -88 59 -93 81
-170 81 -283 0 -70 -3 -101 -12 -104 -7 -2 -12 -12 -12 -23 0 -10 -4 -19 -10
-19 -5 0 -10 -7 -10 -15 0 -8 -6 -14 -12 -13 -7 2 -12 -2 -11 -9 2 -7 -4 -10
-12 -7 -8 4 -15 1 -15 -5 0 -6 -4 -11 -10 -11 -26 0 -116 -107 -117 -140 -1
-8 -12 -44 -25 -80 -25 -68 -40 -79 -92 -66 -42 10 -136 116 -179 202 -14 27
-42 70 -64 96 -21 26 -46 62 -55 80 -47 92 -78 164 -84 197 -14 78 -66 288
-79 316 -7 17 -25 62 -39 100 -15 39 -34 86 -42 105 -9 19 -18 44 -20 55 -8
36 -18 179 -16 215 1 19 4 103 7 185 2 83 7 170 11 193 5 36 2 49 -15 73 l-21
29 21 21 c21 21 22 21 58 4 61 -29 86 -34 106 -19 10 8 26 14 36 14 9 0 34 20
55 45 40 49 65 55 112 31z m-901 -106 c7 0 17 -9 23 -19 12 -24 0 -62 -31 -94
-19 -20 -20 -29 -14 -87 4 -36 7 -78 5 -95 -3 -45 -3 -107 3 -240 4 -111 7
-124 36 -177 42 -76 44 -154 5 -206 -26 -33 -29 -34 -75 -29 -27 3 -73 20
-104 37 -30 17 -61 28 -67 24 -6 -4 -8 -3 -5 3 5 7 -20 13 -71 17 -91 7 -105
6 -130 -17 -24 -22 -54 -22 -73 1 -11 13 -12 21 -5 29 54 52 58 65 39 113 -6
14 -13 44 -17 68 -3 24 -8 47 -11 51 -2 5 -5 78 -6 164 -1 182 9 226 60 269
39 32 174 108 192 108 14 0 75 28 120 56 42 26 67 33 94 28 11 -2 25 -4 32 -4z
m7424 -333 c57 -38 59 -47 54 -323 -2 -138 -8 -269 -14 -291 -13 -48 -39 -73
-113 -108 -32 -15 -58 -31 -58 -35 0 -12 -57 -33 -69 -26 -16 10 -4 184 18
268 17 66 26 137 47 378 5 63 11 82 38 117 36 49 50 52 97 20z m3118 -97 c46
-11 123 -27 172 -35 95 -15 178 -46 205 -76 11 -12 18 -35 17 -57 -1 -64 -40
-195 -77 -256 -30 -49 -66 -164 -66 -208 0 -8 -20 -77 -45 -153 -25 -77 -54
-185 -65 -240 -11 -55 -31 -138 -45 -184 -14 -46 -25 -104 -25 -130 0 -26 -7
-74 -16 -106 -9 -33 -22 -100 -28 -150 -13 -99 -28 -137 -51 -129 -8 4 -15 10
-15 14 0 5 -18 29 -39 54 -30 34 -41 58 -46 93 -4 27 -13 68 -21 93 -8 25 -19
76 -24 114 -6 37 -23 98 -39 135 -16 36 -36 102 -45 146 -11 53 -35 118 -71
192 -47 96 -55 120 -55 170 -1 63 -7 75 -62 117 l-38 28 6 84 c8 99 -2 145
-58 262 -77 160 -62 214 62 235 14 2 106 5 205 6 149 1 194 -3 264 -19z m1479
-30 c119 -16 148 -27 230 -93 42 -34 93 -73 112 -87 19 -13 49 -36 66 -50 17
-15 51 -36 75 -48 155 -73 220 -102 228 -102 5 0 65 -42 133 -93 68 -51 151
-110 185 -132 35 -21 76 -52 92 -69 15 -17 62 -67 102 -111 41 -44 90 -100
109 -125 18 -25 65 -79 104 -120 229 -244 284 -306 362 -410 49 -63 122 -157
163 -208 42 -52 96 -122 121 -157 25 -35 80 -108 122 -162 88 -112 137 -188
208 -323 27 -52 61 -113 75 -135 110 -178 181 -396 234 -726 24 -147 26 -197
7 -299 -8 -41 -21 -120 -30 -175 -37 -219 -47 -265 -86 -385 -23 -72 -54 -146
-74 -175 -19 -27 -44 -77 -56 -110 -12 -33 -37 -80 -56 -104 -19 -24 -34 -49
-34 -54 0 -13 -86 -134 -123 -174 -20 -21 -40 -33 -57 -33 -51 0 -88 59 -155
253 -36 101 -89 182 -155 235 -46 37 -61 56 -71 90 -14 52 -92 141 -153 176
-58 34 -193 74 -273 82 -73 7 -91 14 -138 51 -16 13 -34 27 -40 31 -5 4 -35
16 -65 26 -30 10 -72 27 -92 38 -48 23 -119 24 -147 1 -40 -34 -121 -235 -121
-300 0 -13 -11 -52 -24 -86 -40 -103 -46 -129 -56 -239 -11 -129 -15 -149 -46
-216 -13 -29 -24 -63 -24 -75 0 -38 -26 -119 -58 -183 -17 -34 -40 -84 -51
-113 -35 -86 -118 -201 -148 -201 -7 0 -20 11 -29 25 -17 27 -19 71 -6 232 4
51 4 105 0 120 -5 15 -11 78 -14 138 -3 61 -12 135 -19 165 -8 30 -19 102 -25
160 -6 58 -18 125 -26 150 -7 25 -24 104 -38 176 -13 72 -31 144 -39 160 -8
16 -20 57 -26 90 -16 88 -105 343 -141 404 -17 29 -50 94 -74 144 -35 75 -52
99 -97 136 -29 25 -97 86 -150 136 -110 103 -154 129 -205 119 -56 -10 -69
-41 -71 -170 -1 -60 -4 -141 -7 -179 -3 -38 0 -78 5 -88 6 -11 14 -58 19 -106
8 -74 16 -100 60 -186 27 -56 63 -144 79 -196 16 -52 41 -128 56 -169 29 -81
29 -154 -1 -165 -38 -14 -67 -5 -107 34 -22 23 -69 64 -104 91 -67 54 -77 70
-119 199 -13 41 -46 129 -74 195 -27 66 -50 125 -50 131 0 6 -13 38 -30 72
-38 78 -45 112 -65 297 -9 83 -18 156 -20 163 -3 8 -12 75 -20 150 -9 76 -20
160 -25 187 -5 28 -7 111 -4 185 3 74 6 212 8 305 2 94 8 181 13 195 5 14 10
45 11 70 1 25 6 72 12 105 37 221 54 340 60 410 4 56 20 121 53 217 26 75 47
144 47 154 0 9 15 62 34 118 19 56 37 126 41 156 3 30 24 110 45 178 22 68 40
128 40 135 0 25 49 115 75 139 15 14 59 35 100 47 40 11 97 32 126 46 45 21
69 25 144 25 50 -1 123 -5 163 -10z m-7687 -80 c6 0 7 5 4 10 -4 6 13 -3 37
-19 23 -16 46 -28 49 -25 9 5 106 -30 164 -60 28 -14 77 -31 110 -38 100 -20
212 -98 291 -202 36 -48 62 -70 99 -87 28 -12 70 -35 95 -49 57 -34 115 -48
263 -65 120 -14 150 -13 223 10 23 8 59 16 80 19 43 5 109 30 119 45 6 10 39
34 190 135 l90 61 140 2 c176 3 193 -5 218 -94 23 -80 22 -168 -3 -218 -53
-111 -108 -176 -149 -180 -9 -1 -34 -9 -56 -19 -22 -9 -71 -26 -110 -36 -38
-11 -87 -25 -108 -33 -49 -18 -124 -2 -182 38 -100 68 -183 88 -281 65 -22 -5
-86 -12 -141 -14 -88 -4 -105 -2 -139 16 -50 26 -66 29 -214 35 -107 4 -131 8
-175 30 -27 14 -57 31 -65 38 -8 8 -18 14 -22 14 -4 1 -28 16 -53 33 -25 17
-54 33 -66 35 -69 11 -244 55 -271 69 -55 28 -128 85 -128 100 0 8 -7 14 -15
14 -20 0 -89 66 -81 78 3 5 0 12 -8 15 -19 7 -27 58 -19 127 4 41 10 60 19 60
8 0 14 5 14 11 0 5 -6 7 -12 3 -7 -4 -3 4 10 18 12 13 19 28 15 33 -5 4 -3 5
4 1 7 -3 20 4 30 18 10 13 20 20 21 15 2 -5 8 -9 13 -9z m-247 -62 c93 -60 55
-149 -64 -147 -77 1 -103 11 -118 42 -16 32 -10 56 22 90 21 23 40 29 108 35
9 1 32 -8 52 -20z m-8033 -107 c90 -27 101 -29 224 -41 170 -17 335 -48 385
-73 63 -31 76 -62 61 -146 -6 -36 -13 -86 -15 -111 -2 -25 -12 -76 -21 -115
-14 -56 -16 -98 -12 -215 4 -100 1 -173 -9 -235 -8 -49 -18 -191 -24 -315 -5
-124 -13 -247 -16 -275 -3 -27 1 -88 9 -134 9 -54 11 -96 6 -120 -15 -65 -10
-149 13 -209 16 -44 21 -82 23 -167 1 -60 6 -128 12 -150 6 -22 14 -85 18
-140 3 -55 12 -125 20 -155 8 -30 24 -104 35 -165 27 -135 115 -405 146 -448
13 -18 31 -42 40 -55 26 -35 45 -146 47 -282 l2 -125 -36 -65 c-20 -36 -46
-94 -59 -130 -13 -36 -36 -83 -50 -105 -15 -22 -35 -57 -44 -77 -21 -44 -154
-178 -178 -178 -26 0 -54 44 -73 115 -16 57 -17 75 -7 129 17 90 15 110 -14
169 -21 40 -28 73 -34 147 -5 74 -12 106 -33 147 -15 29 -27 60 -27 70 0 27
-43 113 -79 158 -18 22 -52 78 -77 125 -43 83 -74 127 -199 284 -33 41 -76
100 -95 131 -43 69 -91 112 -167 150 -32 16 -74 39 -93 51 -19 13 -64 28 -100
34 -61 11 -181 70 -207 102 -15 17 -71 189 -79 238 -4 25 0 65 11 108 17 67
17 68 -4 109 -23 45 -46 63 -83 63 -13 0 -86 -21 -163 -47 -138 -47 -141 -49
-203 -113 -89 -92 -148 -182 -182 -279 -47 -132 -98 -199 -139 -186 -41 13
-49 50 -52 240 l-3 180 37 100 c21 55 47 154 58 220 12 67 34 149 49 185 16
36 36 92 45 124 21 71 116 295 142 334 22 31 51 94 82 172 12 31 33 69 47 85
14 17 35 48 46 70 11 22 37 58 58 80 21 22 49 60 63 85 14 25 49 64 79 87 38
29 65 61 87 103 35 65 107 133 216 201 72 46 164 113 264 193 46 38 91 64 120
72 61 17 60 17 132 -5z m2907 -44 c60 -63 102 -236 72 -293 -24 -44 -79 -69
-147 -65 -32 1 -90 56 -103 96 -14 41 4 185 27 226 34 58 112 77 151 36z m767
-643 c22 -8 74 -26 115 -41 100 -34 215 -99 265 -149 22 -22 67 -60 101 -83
63 -43 103 -92 221 -270 67 -100 79 -131 88 -226 3 -33 13 -86 22 -118 14 -51
15 -70 5 -141 -7 -45 -12 -102 -12 -127 0 -51 -12 -100 -46 -186 -13 -34 -24
-70 -24 -80 0 -27 -56 -109 -110 -163 -26 -25 -55 -58 -65 -74 -27 -41 -160
-145 -220 -171 -27 -13 -72 -36 -100 -52 -72 -42 -128 -54 -242 -48 -112 5
-124 8 -173 46 -38 31 -168 93 -215 105 -89 21 -238 169 -308 305 -23 45 -48
94 -56 108 -8 14 -18 76 -23 136 -5 61 -15 133 -22 160 -8 28 -29 104 -47 170
-30 109 -33 131 -32 250 1 134 16 205 52 250 9 12 54 54 101 95 47 41 96 85
110 98 14 13 45 37 70 54 25 18 59 44 77 59 22 19 58 33 120 48 48 11 113 29
143 40 66 23 150 26 205 5z m8065 -135 c19 -5 75 -16 123 -25 108 -18 130 -28
189 -92 38 -40 48 -59 57 -108 6 -32 16 -79 22 -104 18 -73 21 -219 5 -306
-33 -182 -78 -348 -112 -422 -76 -162 -81 -208 -34 -326 17 -41 38 -107 46
-146 19 -82 16 -100 -44 -234 -52 -119 -124 -206 -199 -242 -82 -39 -109 -45
-192 -45 -61 0 -84 5 -136 30 -34 17 -68 37 -75 46 -7 8 -18 15 -24 15 -24 0
-176 87 -227 130 -30 25 -89 80 -131 124 -60 60 -79 87 -83 115 -9 57 -55 219
-86 303 -20 55 -28 97 -29 150 -1 40 -2 86 -2 102 -1 22 9 39 36 63 46 43 106
160 106 210 0 67 18 107 76 168 31 33 70 87 86 120 54 107 144 224 272 357 24
24 77 59 137 88 104 51 130 54 219 29z m-4730 -479 c5 -36 -2 -51 -25 -60 -46
-17 -82 19 -65 64 15 42 85 38 90 -4z m2258 -272 c17 -17 15 -54 -4 -72 -34
-35 -97 -8 -87 36 10 43 63 64 91 36z m1082 -132 c0 -8 5 -16 12 -18 12 -4 16
-110 8 -235 -2 -43 2 -79 15 -117 17 -49 17 -59 4 -98 -28 -86 -131 -164 -274
-210 -55 -17 -78 -31 -115 -69 -26 -27 -55 -49 -64 -49 -9 0 -36 9 -60 21 -43
20 -46 20 -104 4 -34 -10 -73 -29 -91 -46 -30 -27 -67 -41 -136 -53 -16 -3
-66 -23 -110 -45 -44 -22 -105 -47 -136 -56 -31 -8 -79 -30 -106 -49 -28 -19
-90 -55 -139 -81 -98 -52 -121 -53 -184 -11 -47 32 -100 38 -212 26 -125 -14
-137 -16 -183 -28 -43 -12 -71 -17 -144 -28 -25 -4 -57 -12 -71 -17 -14 -6
-95 -12 -180 -12 -85 -1 -218 -5 -295 -9 -77 -4 -198 -6 -270 -5 -222 5 -476
0 -562 -12 -78 -10 -86 -10 -150 14 -61 23 -129 40 -203 52 -14 2 -25 4 -25 5
0 5 -140 23 -270 35 -158 14 -339 51 -371 76 -6 5 -13 7 -16 4 -3 -3 -24 2
-48 10 -23 8 -69 15 -102 15 -32 0 -75 7 -96 16 -83 36 -182 49 -182 25 0 -4
-16 -8 -34 -9 -41 -3 -55 16 -58 77 -1 22 -5 38 -10 35 -5 -3 -17 1 -26 9 -9
8 -26 17 -37 21 -11 3 -45 29 -75 57 -30 28 -77 62 -105 76 -27 14 -61 36 -75
50 -14 14 -46 38 -72 54 -52 31 -57 45 -37 109 6 19 17 64 25 100 18 85 48
147 74 155 42 13 130 -42 276 -175 58 -52 81 -67 179 -121 22 -12 65 -39 95
-60 30 -21 75 -46 100 -55 25 -10 74 -36 110 -59 57 -36 161 -75 365 -135 59
-17 276 -60 305 -60 17 0 38 -4 48 -9 45 -25 157 -62 191 -64 25 -1 48 7 72
23 51 37 98 33 195 -17 45 -23 84 -39 88 -36 11 12 120 12 127 1 5 -8 51 -12
136 -12 115 -1 155 3 227 19 12 3 57 7 101 9 190 11 318 25 575 66 111 18 257
61 379 113 81 34 112 41 195 47 89 7 106 12 178 49 44 23 82 40 85 37 3 -3 22
1 42 8 20 7 61 21 91 31 30 10 62 24 71 31 8 8 18 14 22 14 3 0 41 16 84 36
43 20 96 43 118 51 44 15 132 73 179 117 33 30 101 65 127 66 10 0 40 15 68
34 28 19 84 50 124 70 40 19 96 53 124 75 28 23 53 41 56 41 3 0 29 16 58 35
30 19 59 35 66 35 7 0 13 5 13 10 0 6 5 10 10 10 6 0 10 -6 10 -14z"/>
<path d="M20307 24023 c-16 -15 -7 -80 13 -98 18 -16 23 -17 45 -5 32 17 33
53 0 85 -24 25 -45 31 -58 18z"/>
<path d="M25128 21226 c-55 -15 -140 -88 -208 -180 l-45 -60 0 -101 c0 -107 1
-110 65 -203 47 -68 160 -134 240 -140 49 -4 67 1 162 44 93 41 113 55 159
107 65 74 78 110 79 218 0 111 -19 169 -79 245 -41 51 -57 63 -95 73 -59 14
-218 13 -278 -3z"/>
<path d="M23539 20477 c-104 -56 -165 -91 -182 -105 -10 -9 -43 -58 -74 -109
-62 -105 -74 -157 -50 -214 38 -93 206 -222 303 -235 102 -12 184 0 255 37 86
46 129 91 162 172 34 84 34 135 2 218 -45 114 -55 128 -124 170 -37 22 -81 51
-100 64 -47 34 -130 35 -192 2z"/>
<path d="M17540 12009 c-14 -5 -41 -32 -60 -59 -91 -131 -110 -142 -243 -140
-202 4 -280 -4 -422 -45 -89 -26 -226 -130 -261 -197 -20 -39 -18 -94 6 -118
17 -17 29 -19 97 -14 80 6 112 18 198 72 60 38 127 52 251 52 108 0 184 -23
227 -68 15 -15 38 -60 51 -99 13 -38 35 -88 48 -109 13 -21 30 -52 39 -69 20
-41 63 -42 93 -2 18 24 21 41 19 105 -2 43 3 99 11 127 8 28 14 84 14 125 0
99 19 221 43 278 53 122 -3 201 -111 161z"/>
<path d="M18205 11046 c-73 -35 -102 -56 -156 -113 -60 -64 -68 -78 -97 -169
-50 -157 -51 -176 -7 -277 77 -179 199 -228 446 -181 132 25 150 40 226 184
31 59 42 95 53 169 14 102 10 136 -31 231 -27 63 -67 99 -172 154 -114 60
-142 60 -262 2z m115 -345 c0 -6 -4 -13 -10 -16 -5 -3 -10 1 -10 9 0 9 5 16
10 16 6 0 10 -4 10 -9z"/>
<path d="M21120 13330 c-9 -6 -10 -10 -3 -10 6 0 15 5 18 10 8 12 4 12 -15 0z"/>
<path d="M6095 30586 c-5 -3 -75 -7 -155 -9 -117 -4 -162 -10 -233 -31 -48
-14 -102 -26 -120 -26 -85 0 -236 -58 -290 -112 -59 -58 -165 -185 -181 -216
-8 -16 -36 -54 -61 -83 -81 -94 -136 -235 -161 -409 -8 -58 -22 -149 -30 -203
-37 -248 -49 -1050 -20 -1373 9 -105 16 -195 15 -200 -2 -5 1 -61 5 -124 5
-76 4 -137 -4 -177 -8 -46 -8 -84 0 -145 19 -142 33 -281 33 -323 0 -22 -1
-83 -2 -136 -1 -53 1 -118 4 -145 2 -27 12 -123 21 -214 33 -341 57 -388 181
-346 26 9 57 16 70 16 40 0 163 53 203 88 34 28 41 43 55 107 17 76 15 190 -6
282 -5 23 -8 111 -7 195 1 84 -3 178 -9 208 -7 30 -14 87 -17 126 -3 39 -8 77
-10 85 -7 19 -15 286 -22 669 -5 297 -8 346 -35 480 -6 30 -8 81 -5 115 3 33
8 94 11 135 3 41 8 95 11 120 2 25 8 129 13 231 5 103 11 191 14 197 4 5 13
70 22 143 18 157 36 224 77 297 36 63 84 102 136 109 51 7 73 -6 123 -74 48
-65 115 -133 178 -183 52 -40 131 -110 146 -127 13 -15 131 -93 177 -117 20
-10 58 -41 85 -69 26 -27 111 -103 188 -168 77 -64 172 -150 212 -191 187
-190 231 -230 292 -272 66 -44 103 -79 135 -126 9 -14 101 -111 204 -216 272
-277 348 -364 362 -414 7 -26 5 -33 -24 -58 -17 -15 -66 -40 -107 -55 -69 -25
-107 -52 -222 -152 -9 -8 -53 -43 -97 -77 -95 -72 -121 -101 -161 -179 -54
-109 -60 -151 -53 -384 5 -192 8 -216 31 -274 14 -36 35 -106 48 -156 28 -109
90 -235 143 -290 21 -22 51 -59 66 -82 42 -63 157 -158 215 -178 30 -10 62
-30 78 -49 43 -48 83 -62 122 -42 62 33 84 110 57 206 -9 30 -25 98 -37 150
-12 52 -32 116 -45 142 -37 74 -101 239 -109 283 -4 22 -17 72 -30 110 -48
149 -42 270 19 360 46 67 168 192 238 244 67 50 196 101 253 101 45 -1 71 -18
201 -135 142 -128 230 -219 269 -280 51 -77 149 -175 205 -202 38 -20 46 -20
70 -8 14 7 38 31 53 52 14 21 56 67 91 102 69 67 84 100 73 166 -9 53 -70 174
-122 240 -64 82 -216 238 -271 277 -24 17 -57 52 -73 77 -16 25 -39 57 -52 71
-13 14 -44 50 -68 78 -24 29 -60 61 -80 72 -44 23 -58 36 -146 140 -111 133
-184 208 -265 273 -101 81 -177 155 -203 197 -12 19 -49 62 -82 95 -33 33 -85
87 -115 121 -53 58 -108 108 -184 167 -20 15 -43 42 -52 60 -21 42 -114 132
-207 201 -41 30 -85 67 -98 83 -13 15 -42 41 -64 57 -61 45 -148 122 -238 212
-84 84 -185 165 -254 204 -38 21 -93 90 -93 116 0 21 41 28 159 25 93 -2 124
-6 170 -25 62 -26 233 -61 362 -75 64 -6 102 -17 159 -44 55 -26 105 -40 180
-52 98 -15 177 -32 260 -55 19 -5 74 -19 122 -30 47 -11 133 -36 190 -56 57
-19 117 -39 133 -43 17 -5 73 -22 125 -38 52 -17 120 -36 150 -43 30 -6 91
-27 135 -46 44 -18 107 -37 140 -43 33 -5 94 -22 135 -39 41 -16 113 -42 160
-57 47 -15 126 -47 175 -70 50 -24 128 -55 175 -70 47 -16 95 -34 106 -42 12
-7 57 -25 100 -39 44 -14 90 -32 104 -39 14 -7 54 -21 90 -30 36 -10 86 -28
112 -40 26 -13 64 -26 85 -30 21 -3 81 -32 134 -64 90 -54 191 -97 284 -120
22 -6 81 -34 130 -63 50 -28 122 -65 160 -82 39 -17 133 -65 210 -106 140 -74
140 -75 215 -74 117 2 198 35 315 129 107 86 124 113 102 161 -13 25 -38 42
-139 92 -78 38 -136 73 -158 97 -43 46 -69 59 -178 94 -48 15 -121 47 -162 70
-41 23 -108 56 -150 72 -41 16 -91 39 -110 51 -51 32 -99 54 -166 73 -32 9
-91 32 -131 51 -40 19 -94 39 -120 45 -45 10 -77 24 -178 77 -89 47 -203 92
-257 101 -33 6 -91 29 -140 55 -46 25 -146 67 -223 94 -77 27 -198 71 -270 97
-167 60 -358 124 -510 169 -66 20 -147 46 -180 57 -33 12 -94 27 -136 34 -42
7 -86 18 -98 24 -12 7 -54 20 -94 31 -241 62 -352 95 -432 125 -94 35 -114 41
-155 49 -113 19 -153 26 -210 32 -36 3 -93 17 -128 30 -49 18 -74 22 -120 18
-49 -5 -64 -2 -106 20 -34 18 -64 26 -100 26 -28 0 -76 7 -106 15 -30 9 -104
20 -165 25 -60 6 -141 17 -180 25 -71 14 -242 28 -260 21z"/>
<path d="M12265 28320 c-27 -4 -66 -14 -86 -22 -42 -18 -130 -79 -179 -124
-19 -17 -54 -41 -77 -53 -23 -11 -58 -32 -78 -45 -20 -14 -58 -32 -86 -41 -27
-9 -72 -36 -99 -59 -29 -25 -72 -49 -104 -59 -31 -10 -68 -28 -83 -41 -16 -13
-44 -31 -63 -41 -19 -10 -64 -37 -100 -60 -36 -23 -81 -47 -100 -53 -19 -7
-84 -51 -144 -99 -60 -49 -134 -105 -165 -126 -31 -22 -58 -43 -61 -47 -3 -4
-26 -21 -51 -36 -51 -32 -142 -103 -227 -176 -30 -27 -58 -48 -63 -48 -4 0
-26 -16 -50 -36 -23 -19 -59 -43 -79 -53 -37 -18 -125 -84 -211 -158 -27 -24
-64 -50 -82 -59 -17 -9 -43 -26 -57 -38 -15 -12 -65 -43 -113 -70 -123 -69
-167 -109 -167 -151 0 -50 17 -80 60 -104 34 -19 53 -21 161 -20 139 1 144 -1
215 -88 40 -49 53 -87 69 -207 8 -61 16 -88 40 -136 12 -25 30 -79 39 -120 10
-41 35 -112 56 -157 22 -45 49 -119 60 -164 12 -45 36 -112 55 -148 18 -37 36
-89 40 -116 8 -54 43 -145 55 -145 11 0 37 -68 55 -145 8 -36 30 -100 49 -140
19 -41 43 -110 54 -153 11 -43 34 -101 51 -129 17 -27 40 -81 52 -119 11 -38
33 -89 48 -114 15 -25 40 -79 55 -120 16 -41 40 -95 54 -120 14 -25 34 -62 44
-82 10 -20 35 -57 57 -82 26 -30 41 -59 46 -88 9 -53 19 -73 60 -119 25 -28
35 -52 44 -104 9 -50 21 -79 47 -113 19 -25 44 -77 56 -115 16 -55 31 -81 68
-119 62 -64 101 -66 169 -9 25 21 60 46 78 54 44 23 70 60 77 112 4 26 22 66
44 97 28 42 37 65 40 110 4 49 0 64 -27 111 -17 31 -40 81 -51 113 -11 31 -34
78 -50 104 -16 26 -39 73 -50 105 -11 32 -36 88 -56 124 -20 36 -47 97 -60
135 -13 38 -34 83 -47 100 -26 35 -40 70 -56 139 -7 27 -25 72 -41 100 -16 29
-41 95 -55 147 -15 52 -42 126 -62 164 -19 38 -41 102 -49 143 -15 79 -23 100
-61 150 -16 20 -28 55 -34 100 -7 45 -22 87 -44 125 -18 31 -45 98 -60 150
-14 51 -44 133 -67 181 -27 59 -42 108 -45 148 -4 41 -13 71 -29 92 -13 18
-30 42 -39 53 -9 12 -20 50 -26 84 -11 73 -14 77 -86 188 -49 74 -61 87 -109
108 -66 29 -88 60 -81 115 7 52 20 67 89 98 36 17 94 60 160 121 140 128 189
168 237 196 64 36 172 115 207 152 59 61 146 62 214 1 19 -17 54 -39 78 -50
24 -10 62 -34 85 -52 23 -19 60 -41 82 -49 51 -20 80 -57 71 -92 -10 -38 -46
-42 -147 -16 -87 22 -138 22 -180 0 -9 -5 -30 -39 -48 -75 -29 -62 -31 -72
-31 -182 0 -114 1 -117 35 -178 27 -49 40 -91 60 -199 13 -75 34 -155 46 -178
37 -72 49 -119 59 -227 17 -181 29 -251 56 -329 18 -52 33 -136 49 -266 18
-153 30 -212 59 -298 20 -59 36 -122 36 -141 0 -47 37 -224 53 -252 6 -12 20
-36 29 -53 10 -17 22 -61 27 -98 7 -46 18 -78 38 -105 15 -21 40 -60 54 -85
49 -85 147 -191 208 -222 31 -16 76 -41 101 -55 92 -52 269 -71 384 -41 93 24
275 112 327 158 43 39 144 105 234 156 68 37 159 163 278 380 17 30 61 87 98
126 99 103 111 148 60 225 -31 46 -119 128 -187 174 -21 15 -53 41 -70 58 -17
18 -46 46 -65 62 -19 17 -59 59 -89 94 -142 163 -180 197 -293 259 -37 21 -52
23 -124 19 -71 -4 -90 -9 -131 -36 -27 -17 -72 -35 -101 -41 -96 -18 -111 -36
-111 -135 0 -97 17 -128 88 -164 59 -30 163 -132 240 -236 17 -22 44 -56 61
-75 17 -19 31 -38 31 -42 0 -4 18 -27 39 -52 87 -100 62 -171 -125 -360 -124
-125 -199 -174 -272 -175 -26 -1 -43 9 -82 45 -75 71 -87 95 -103 224 -9 63
-24 136 -35 161 -33 77 -61 208 -71 334 -5 66 -17 140 -25 164 -35 98 -65 251
-71 366 -7 128 -31 236 -71 324 -15 31 -29 87 -34 132 -6 53 -20 101 -41 146
-20 45 -42 124 -64 228 -18 89 -41 182 -53 207 -32 73 -36 105 -17 135 16 24
20 25 94 21 66 -5 87 -11 164 -52 48 -25 93 -46 100 -46 8 0 31 -15 53 -33 21
-19 66 -52 99 -75 33 -24 88 -64 122 -90 92 -70 138 -104 185 -135 139 -90
197 -135 363 -282 62 -55 146 -127 185 -160 40 -33 94 -78 120 -100 26 -22 80
-67 120 -100 41 -33 94 -79 119 -101 25 -23 62 -49 81 -59 19 -10 51 -31 70
-46 19 -15 60 -39 90 -52 30 -14 72 -38 93 -55 21 -17 64 -39 96 -50 32 -11
82 -36 110 -56 29 -19 69 -38 89 -41 60 -10 94 -23 152 -59 30 -19 88 -44 127
-56 40 -12 92 -35 115 -51 61 -42 131 -59 267 -68 103 -6 124 -11 158 -32 52
-34 61 -37 174 -54 97 -15 173 -10 217 14 31 17 81 75 96 113 20 46 20 114 2
150 -18 33 -87 96 -140 126 -23 13 -50 32 -61 41 -11 10 -52 30 -92 45 -40 15
-88 40 -108 56 -20 16 -61 38 -91 49 -29 12 -77 36 -106 55 -30 20 -77 40
-108 47 -30 6 -84 28 -120 50 -45 26 -91 44 -145 55 -54 10 -96 26 -130 49
-28 18 -79 43 -114 55 -35 13 -82 39 -104 57 -22 19 -59 44 -81 55 -22 11 -56
33 -76 48 -19 15 -51 36 -70 46 -19 11 -58 38 -88 62 -29 23 -56 42 -61 42
-16 0 -81 58 -131 119 -34 40 -76 75 -120 101 -38 22 -72 45 -75 50 -4 6 -24
19 -45 30 -22 11 -62 39 -89 63 -28 23 -91 71 -141 107 -51 36 -116 85 -146
110 -29 25 -81 68 -115 95 -33 28 -80 67 -104 88 -24 21 -71 49 -104 62 -34
13 -79 37 -100 54 -21 17 -64 40 -94 52 -31 12 -73 36 -94 54 -42 35 -243 109
-397 145 -64 14 -102 30 -135 54 -25 19 -71 45 -102 59 -105 46 -88 81 100
206 20 13 61 41 91 61 30 20 76 46 102 58 25 11 69 38 97 60 28 22 74 48 103
58 65 21 107 52 158 117 32 40 40 58 40 92 0 38 -5 46 -56 91 -30 27 -63 52
-72 55 -33 12 -108 16 -157 9z"/>
<path d="M5157 25468 c-73 -51 -81 -63 -113 -177 l-27 -92 32 -185 c25 -150
40 -207 76 -300 25 -62 45 -130 45 -151 1 -60 15 -109 48 -158 33 -50 68 -182
76 -286 4 -46 14 -85 35 -125 29 -59 67 -216 56 -234 -3 -6 -22 -10 -41 -10
-40 0 -138 61 -185 115 -60 68 -227 114 -411 115 -54 0 -213 -46 -280 -81 -30
-15 -127 -99 -360 -312 -104 -94 -209 -183 -235 -198 -27 -15 -57 -37 -69 -50
-11 -13 -55 -57 -98 -98 -42 -41 -77 -81 -78 -90 -3 -39 5 -51 51 -79 64 -40
83 -70 109 -172 22 -90 27 -138 42 -425 10 -182 34 -341 69 -450 10 -33 24
-102 30 -154 13 -100 21 -122 78 -202 58 -81 88 -106 140 -117 27 -6 98 -22
158 -36 233 -53 251 -56 450 -53 l190 3 75 35 c41 20 89 42 106 48 32 12 98
76 181 173 26 31 67 79 90 106 23 26 55 72 73 101 17 29 42 70 56 90 13 20 34
68 45 106 12 39 34 95 49 125 15 30 32 71 39 91 22 67 55 87 182 111 l114 21
70 71 c39 40 93 98 120 130 28 32 69 80 93 106 23 26 52 61 65 78 12 17 56 74
97 127 41 54 86 115 98 137 28 46 119 118 150 118 57 0 78 -71 68 -233 -3 -56
-2 -140 2 -185 10 -109 -3 -229 -34 -317 -48 -132 -63 -199 -63 -282 -2 -166
24 -221 169 -361 112 -109 214 -187 281 -214 30 -12 70 -32 90 -44 75 -46 129
-54 409 -62 409 -11 639 -8 685 7 84 28 468 218 530 263 22 16 57 33 78 39 43
11 99 60 281 244 200 201 222 227 241 286 10 30 32 79 50 109 18 30 40 77 50
105 9 27 34 75 55 107 44 66 56 119 40 176 -23 87 -98 117 -259 107 -119 -8
-183 -24 -215 -54 -25 -24 -122 -80 -231 -135 l-80 -41 -42 -85 c-23 -47 -51
-110 -63 -140 -20 -52 -92 -155 -158 -225 -52 -55 -224 -200 -260 -219 -19
-10 -63 -27 -96 -38 -34 -11 -88 -36 -120 -57 -57 -35 -63 -36 -150 -36 -85 0
-97 3 -181 41 -49 23 -112 49 -139 59 -57 21 -97 57 -127 118 -22 41 -22 47
-15 357 7 323 11 362 56 500 11 36 25 115 31 175 11 118 27 192 64 295 13 36
28 108 34 160 7 52 24 126 38 165 14 38 33 93 44 120 23 64 52 289 44 334 -10
55 -41 106 -71 120 -47 21 -180 24 -311 7 -99 -13 -139 -23 -210 -55 -48 -21
-99 -42 -113 -46 -58 -18 -208 -102 -251 -141 -25 -23 -56 -45 -70 -49 -13 -4
-58 -30 -100 -56 -42 -27 -82 -49 -88 -49 -7 0 -70 -56 -140 -125 -95 -93
-134 -125 -153 -125 -39 0 -122 94 -142 160 -9 30 -16 57 -16 62 0 5 -21 61
-47 126 -47 114 -48 119 -47 222 1 137 13 161 97 200 34 16 75 42 91 59 16 17
53 40 81 50 59 22 230 134 239 156 5 13 50 46 146 108 16 10 61 27 102 38 40
11 98 35 128 53 30 19 71 41 90 51 53 27 181 146 197 182 27 67 4 156 -51 196
-27 19 -46 22 -141 25 -92 3 -125 0 -205 -21 -52 -13 -113 -32 -135 -42 -22
-9 -70 -25 -107 -35 -49 -13 -80 -29 -112 -57 -25 -22 -62 -45 -83 -51 -51
-15 -189 -100 -236 -146 -49 -47 -147 -96 -207 -103 -79 -9 -98 24 -120 201
-12 100 -11 97 -60 157 -89 108 -135 131 -251 122 -48 -3 -78 0 -123 16 -84
30 -111 26 -179 -21z m-370 -2079 c33 -12 173 -152 173 -172 0 -8 20 -55 45
-105 55 -110 62 -148 69 -362 6 -206 -7 -297 -57 -379 -19 -31 -43 -84 -52
-118 -10 -37 -30 -77 -50 -100 -18 -21 -41 -53 -52 -71 -28 -46 -130 -150
-154 -157 -32 -11 -84 3 -107 28 -38 40 -59 119 -72 268 -6 71 -15 109 -34
147 -38 75 -56 208 -66 482 -9 254 -2 386 24 424 19 29 113 94 162 111 47 17
132 19 171 4z m974 -18 c19 -15 24 -30 27 -88 7 -120 -44 -193 -135 -193 -38
0 -50 9 -68 52 -8 20 -23 41 -32 47 -10 5 -55 7 -103 4 -115 -7 -160 10 -160
61 0 26 7 40 27 56 23 18 39 21 118 20 117 -2 108 -3 133 20 42 39 155 52 193
21z"/>
<path d="M9768 25363 c-8 -10 -23 -38 -32 -63 -27 -70 -80 -151 -132 -200 -25
-25 -83 -81 -128 -126 -44 -44 -108 -100 -141 -124 -65 -47 -172 -151 -220
-215 -17 -22 -72 -82 -124 -135 -118 -120 -167 -185 -215 -283 -38 -78 -39
-80 -33 -170 4 -67 0 -123 -15 -207 -20 -119 -19 -183 4 -206 11 -10 21 -8 57
9 44 21 75 48 166 148 34 37 71 65 117 86 55 26 87 53 185 155 65 68 149 154
186 192 38 37 72 79 77 91 5 13 40 49 77 82 38 32 82 74 98 94 17 19 59 60 94
90 108 92 178 165 200 207 23 45 28 123 11 166 -5 15 -14 53 -19 86 -6 34 -21
75 -36 97 -14 21 -33 62 -41 90 -16 55 -85 153 -108 153 -7 0 -20 -8 -28 -17z"/>
</g>
</svg>
